<svg width="200" height="200" viewBox="0 0 200 200" fill="none" xmlns="http://www.w3.org/2000/svg">
    <path fill-rule="evenodd" clip-rule="evenodd" d="M0 18.9091V37.8183H18.9091H37.8183V18.9091V0H18.9091H0V18.9091ZM48.6856 2.60816V5.21631H45.8601H43.0346V8.02095V10.826L45.7514 10.9551L48.4683 11.0847L48.5904 16.4097L48.7125 21.7346H51.3072H53.9019V24.3428V26.951H48.4683H43.0346V34.9854V43.0194L32.2759 43.1359L21.5173 43.2519L21.3878 45.9688L21.2587 48.6856H16.0628H10.8673V51.5246V54.3636L16.1923 54.2414L21.5173 54.1193L21.6468 51.4024L21.7759 48.6856H24.3428H26.9097L27.0388 51.4024L27.1683 54.1193L29.6678 54.2497L32.1673 54.3801V56.9665V59.5529H26.7336H21.2999V62.1611V64.7692H18.6918H16.0836V62.1611V59.5529H13.4755H10.8673V62.1611V64.7692H8.25916H5.65101V56.7274V48.6856H2.8255H0V56.7057V64.7258L2.49948 64.8562L4.99897 64.9866L5.12851 67.7034L5.25761 70.4202H8.04182H10.826L10.9551 67.7034L11.0847 64.9866H13.4755H15.8663L15.9884 70.3116L16.1106 75.6366H13.489H10.8673V78.2447V80.8529H8.25916H5.65101V78.2447V75.6366H2.8255H0V78.4621V81.2876H2.60816H5.21631V86.5039V91.7202H2.60816H0V94.5457V97.3712H2.60816H5.21631V99.9585V102.546L7.93314 102.675L10.65 102.805L10.7804 105.304L10.9108 107.804H5.45539H0V110.629V113.455H2.58729H5.17502L5.30412 116.172L5.43366 118.888L8.17136 119.018L10.9095 119.148L10.7795 121.627L10.65 124.105L7.94618 124.234L5.24283 124.363L5.12068 129.668L4.99897 134.972L2.49948 135.103L0 135.233V137.819V140.406H2.8255H5.65101V137.798V135.189H8.25916H10.8673V137.798V140.406H13.4755H16.0836V137.798V135.189H18.9091H21.7346V132.581V129.973H24.3428H26.951V137.784V145.595L21.626 145.717L16.301 145.839L16.1714 148.556L16.0423 151.273H18.6505H21.2587L21.3878 153.99L21.5173 156.707L32.2686 156.823L43.0194 156.939L43.1359 167.69L43.2519 178.441L45.9688 178.571L48.6856 178.7V173.246V167.791H54.1332H59.5803L59.4582 172.899L59.3356 178.007L56.6187 178.136L53.9019 178.265V181.07V183.875H51.2938H48.6856V186.47V189.064L54.0106 189.187L59.3356 189.309L59.3982 191.808L59.4608 194.308H56.6813H53.9019V197.133V199.959H59.3138H64.7258L64.8562 197.459L64.9866 194.96L70.3116 194.838L75.6366 194.715V197.337V199.959H78.4621H81.2876V197.351V194.742H83.8957H86.5039V189.309V183.875H89.112H91.7202V186.462V189.05L94.437 189.179L97.1538 189.309L97.2834 191.787L97.4134 194.265L94.6752 194.395L91.9375 194.525L91.808 197.242L91.6789 199.959H94.5248H97.3712V197.351V194.742H102.566H107.76L107.891 197.242L108.021 199.741H113.455H118.888L119.019 197.242L119.149 194.742H121.736H124.322V197.351V199.959H135.189H146.057V197.351V194.742H148.644H151.232L151.361 192.026L151.49 189.309L156.815 189.187L162.14 189.064V186.47V183.875H164.966H167.791V181.267V178.659H170.4H173.008V181.267V183.875H178.441H183.875V181.05V178.224H181.267H178.659V175.616V173.008H181.26H183.86L183.976 162.249L184.092 151.49H186.483H188.874L188.987 170.291L189.101 189.091H181.054H173.008V194.531V199.971L186.375 199.856L199.741 199.741L199.864 194.416L199.986 189.091H197.364H194.742V186.483V183.875H197.36H199.978L199.86 175.725L199.741 167.574L197.242 167.444L194.742 167.313V164.727V162.14H197.36H199.978L199.86 153.99L199.741 145.839L197.242 145.709L194.742 145.579V142.992V140.406H191.917H189.091V143.014V145.622H186.483H183.875V140.406V135.189H186.483H189.091V132.581V129.973H191.7H194.308V132.581V135.189H197.133H199.959V126.93V118.671H197.351H194.742V116.063V113.455H191.917H189.091V116.28V119.106H191.7H194.308V121.714V124.322H189.091H183.875V126.93V129.538H181.07H178.265L178.136 132.255L178.007 134.972L172.899 135.095L167.791 135.217V132.617V130.017L170.291 129.886L172.79 129.756L172.92 127.039L173.049 124.322H175.854H178.659V121.736V119.149L181.158 119.019L183.658 118.888L183.787 116.172L183.916 113.455H181.288H178.659V110.847V108.239H189.309H199.959V105.413V102.588H189.309H178.659V99.9793V97.3712H181.267H183.875V94.5457V91.7202H181.267H178.659V89.112V86.5039H175.833H173.008V83.8957V81.2876H178.441H183.875V83.8957V86.5039H186.462H189.05L189.179 89.2207L189.309 91.9375L191.787 92.0671L194.266 92.197L194.396 94.6752L194.525 97.1538L197.251 97.2834L199.978 97.4134L199.86 89.2416L199.741 81.0702L197.242 80.9398L194.742 80.8094V78.223V75.6366H197.351H199.959V67.6047V59.5725L192.026 59.4542L184.092 59.3356L183.97 54.0106L183.848 48.6856H181.036H178.224V51.2938V53.9019H175.616H173.008V48.4683V43.0346H167.595H162.182L162.053 45.7514L161.923 48.4683L159.424 48.5987L156.924 48.7291V37.8609V26.9923L154.207 26.8631L151.49 26.7336V24.3428V21.952L154.207 21.8225L156.924 21.6933V16.301V10.9086L154.207 10.7795L151.49 10.65L151.36 8.15049L151.23 5.65101H154.077H156.924V2.8255V0H146.057H135.189V2.8255V5.65101H137.798H140.406V8.25916V10.8673H134.972H129.538V13.4755V16.0836H126.93H124.322V13.4755V10.8673H121.714H119.106V8.25916V5.65101H121.714H124.322V2.8255V0H121.497H118.671V2.60816V5.21631H110.629H102.588V2.60816V0H99.9793H97.3712V2.8255V5.65101H99.9793H102.588V10.8673V16.0836H97.3712H92.1549V13.4963V10.9086L89.438 10.7795L86.7212 10.65L86.5917 8.17179L86.4617 5.69361L89.1998 5.56363L91.9375 5.43366L92.0671 2.71683L92.1962 0H86.5247H80.8529V2.60816V5.21631H78.2447H75.6366V2.60816V0H67.6082H59.5799L59.4577 5.32499L59.3356 10.65L54.0106 10.7721L48.6856 10.8943V8.29307V5.6923L51.4024 5.5632L54.1193 5.43366L54.2488 2.71683L54.3779 0H51.532H48.6856V2.60816ZM162.14 18.9091V37.8183H181.05H199.959V18.9091V0H181.05H162.14V18.9091ZM32.1673 18.9091V32.1673H18.9091H5.65101V18.9091V5.65101H18.9091H32.1673V18.9091ZM75.6366 8.25916V10.8673H78.2447H80.8529V13.462V16.0567L75.5279 16.1788L70.2029 16.301V18.9091V21.5173L72.9197 21.6468L75.6366 21.7759V29.7973V37.8183H78.2447H80.8529V43.2737V48.7291L78.3534 48.5987L75.8539 48.4683L75.7244 45.7514L75.5953 43.0346H73.0075H70.4202V37.6009V32.1673H67.5947H64.7692V29.5591V26.951H62.1611H59.5529V21.5173V16.0836H62.1611H64.7692V10.8673V5.65101H70.2029H75.6366V8.25916ZM194.308 18.9091V32.1673H181.05H167.791V18.9091V5.65101H181.05H194.308V18.9091ZM10.8673 18.9091V26.951H18.9091H26.951V18.9091V10.8673H18.9091H10.8673V18.9091ZM118.671 13.4546V16.0423L121.388 16.1714L124.105 16.301L124.234 19.0178L124.363 21.7346H132.385H140.406V24.3428V26.951H143.014H145.622V29.5591V32.1673H143.014H140.406V34.9928V37.8183H137.798H135.189V34.9928V32.1673H132.364H129.538V34.9928V37.8183H126.93H124.322V40.4264V43.0346H121.714H119.106V40.4264V37.8183H121.714H124.322V32.3846V26.951H121.735H119.147L119.018 24.2341L118.888 21.5173H116.28H113.672L113.543 24.2341L113.414 26.951H116.042H118.671V32.4064V37.8617L116.172 37.7313L113.672 37.6009L113.542 34.8641L113.412 32.1268L110.717 32.2559L108.021 32.3846L107.892 35.1014L107.763 37.8183H110.608H113.455V40.6438V43.4693H116.063H118.671V46.0774V48.6856H121.51H124.349L124.227 54.0106L124.105 59.3356H116.28H108.456L108.326 56.6187L108.197 53.9019H105.392H102.588V51.2938V48.6856H105.413H108.239V45.8601V43.0346H105.434H102.629L102.5 45.7514L102.37 48.4683L99.8707 48.5987L97.3712 48.7291V51.5328V54.3366H100.001H102.631L102.501 56.8361L102.37 59.3356L99.8707 59.466L97.3712 59.5964V62.1828V64.7692H94.763H92.1549V59.3356V53.9019H89.3294H86.5039V51.2938V48.6856H89.3502H92.1962L92.0671 45.9688L91.9375 43.2519L89.2207 43.1224L86.5039 42.9933V40.4056V37.8183H89.3502H92.1962L92.0671 35.1014L91.9375 32.3846L89.242 32.2559L86.5465 32.1268L86.4165 34.8641L86.2865 37.6009L83.787 37.7313L81.2876 37.8617V32.4064V26.951H83.8957H86.5039V24.3428V21.7346H97.3712H108.239V16.301V10.8673H113.455H118.671V13.4546ZM151.273 13.489V16.1106L145.948 15.9884L140.623 15.8663L140.487 13.9693C140.262 10.8325 140.199 10.8673 146.043 10.8673H151.273V13.489ZM173.008 18.9091V26.951H181.05H189.091V18.9091V10.8673H181.05H173.008V18.9091ZM59.466 29.6678L59.5964 32.1673H56.9665H54.3366V29.5374V26.9075L56.8361 27.0379L59.3356 27.1683L59.466 29.6678ZM97.3712 34.9928V37.8183H99.9793H102.588V34.9928V32.1673H99.9793H97.3712V34.9928ZM53.9019 35.2101V37.8183H51.2938H48.6856V35.2101V32.602H51.2938H53.9019V35.2101ZM64.7692 38.0356V43.4693H67.3774H69.9855V46.0774V48.6856H62.1611H54.3366V43.2519V37.8183H56.9448H59.5529V35.2101V32.602H62.1611H64.7692V38.0356ZM151.273 40.6438V48.6856H153.86H156.448L156.577 51.4024L156.707 54.1193H159.315H161.923L162.053 51.4024L162.182 48.6856H164.749H167.315L167.445 51.4024L167.574 54.1193L170.312 54.2492L173.05 54.3792L172.92 56.8574L172.79 59.3356L167.465 59.4577L162.14 59.5799V62.1746V64.7692H159.532H156.924V62.1819V59.5942L154.207 59.4651L151.49 59.3356L151.361 56.6187L151.232 53.9019H148.644H146.057V51.3146V48.7269L143.34 48.5978L140.623 48.4683V43.2519V38.0356L143.34 37.9061L146.057 37.777V35.1893V32.602H148.665H151.273V40.6438ZM189.187 48.5769L189.309 54.1193H194.525H199.741L199.871 51.4024L200 48.6856H197.371H194.742V45.8601V43.0346H191.904H189.065L189.187 48.5769ZM48.5987 45.9688L48.4683 48.4683L45.9688 48.5987L43.4693 48.7291V46.0992V43.4693H46.0992H48.7291L48.5987 45.9688ZM43.0346 54.1193V59.5529H45.8601H48.6856V56.9448V54.3366H54.1193H59.5529V59.5529V64.7692H46.0774H32.602V62.1611V59.5529H35.2101H37.8183V56.7274V53.9019H35.2101H32.602V51.2938V48.6856H37.8183H43.0346V54.1193ZM135.094 54.0106L134.972 59.3356L132.473 59.466L129.973 59.5964V54.141V48.6856H132.595H135.216L135.094 54.0106ZM145.622 59.5529V64.7692H151.056H156.489V67.3774V69.9855H153.881H151.273V72.8245V75.6635L145.948 75.5414L140.623 75.4192L140.494 72.7024L140.364 69.9855H135.169H129.973V67.3774V64.7692H135.189H140.406V59.5529V54.3366H143.014H145.622V59.5529ZM69.9855 62.1402V64.7279L72.7024 64.857L75.4192 64.9866L75.5487 67.7034L75.6778 70.4202H78.4829H81.2876V67.5808V64.7418L86.3952 64.864L91.5028 64.9866L91.6332 67.4861L91.7637 69.9855H89.1338H86.5039V75.4192V80.8529H83.8957H81.2876V78.2447V75.6366H75.8748H70.4615L70.3324 72.9197L70.2029 70.2029L67.4861 70.0733L64.7692 69.9443V64.7484V59.5529H67.3774H69.9855V62.1402ZM107.804 62.1611V64.7692H105.196H102.588V62.1611V59.5529H105.196H107.804V62.1611ZM129.538 62.1611V64.7692H126.93H124.322V62.1611V59.5529H126.93H129.538V62.1611ZM183.875 62.1393V64.7258L186.375 64.8562L188.874 64.9866L189.004 67.7034L189.133 70.4202H191.72H194.308V73.0284V75.6366H191.7H189.091V78.2447V80.8529H186.483H183.875V78.2447V75.6366H178.441H173.008V78.2351V80.8337L164.857 80.952L156.707 81.0702L156.577 83.787L156.448 86.5039H153.86H151.273V91.9375V97.3712H148.665H146.057V91.9584V86.5452L143.34 86.4161L140.623 86.2865L140.493 83.787L140.362 81.2876H145.797H151.232L151.361 78.5707L151.49 75.8539L154.207 75.7244L156.924 75.5953V73.0075V70.4202H159.532H162.14V73.0284V75.6366H164.966H167.791V73.0419V70.4472L173.116 70.325L178.441 70.2029L178.571 67.4861L178.7 64.7692H175.854H173.008V62.1611V59.5529H178.441H183.875V62.1393ZM26.8631 67.7034L26.9923 70.4202H37.8391H48.6856V73.0284V75.6366H51.2938H53.9019V78.2447V80.8529H51.2938H48.6856V78.2447V75.6366H37.8183H26.951V78.2447V80.8529H21.4956H16.0402L16.1706 78.3534L16.301 75.8539L19.0178 75.7244L21.7346 75.5953V70.472C21.7346 67.6543 21.8737 65.2096 22.0441 65.0396C22.2141 64.8692 23.3387 64.7879 24.5436 64.8583L26.7336 64.9866L26.8631 67.7034ZM124.227 70.3116L124.349 75.6366H126.944H129.538V83.6784V91.7202H126.93H124.322V94.5322V97.3442L129.647 97.4664L134.972 97.5885V99.9793V102.37L132.255 102.5L129.538 102.629V110.868V119.106H134.951H140.364L140.494 116.389L140.623 113.672L143.123 113.542L145.622 113.411V118.867V124.322H143.014H140.406V126.93V129.538H137.818H135.231L135.102 132.255L134.972 134.972L132.494 135.102L130.016 135.232L129.886 132.493L129.756 129.756L127.039 129.626L124.322 129.497V126.909V124.322H121.714H119.106V118.888V113.455H116.28H113.455V116.063V118.671H110.847H108.239V116.063V113.455H110.847H113.455V110.608V107.763L110.738 107.892L108.021 108.021L107.892 110.738L107.763 113.455H105.175H102.588V118.888V124.322H105.196H107.804V129.778V135.233L105.304 135.103L102.805 134.972L102.683 129.647L102.561 124.322H97.1199H91.6789L91.808 127.039L91.9375 129.756L94.6752 129.886L97.4134 130.016L97.2834 132.494L97.1538 134.972L89.2207 135.091L81.2876 135.209V132.613V130.017L83.787 129.886L86.2865 129.756L86.4082 124.213L86.53 118.671H83.9088H81.2876V116.063V113.455H86.7421H92.1962L92.0671 110.738L91.9375 108.021L89.2207 107.892L86.5039 107.763V102.567V97.3712H89.112H91.7202V99.9585V102.546L94.437 102.675L97.1538 102.805L97.2834 105.522L97.4125 108.239H99.9793H102.546L102.675 105.522L102.805 102.805L105.522 102.675L108.239 102.546V99.9585V97.3712H113.682H119.125L119.007 89.2207L118.888 81.0702L116.172 80.9407L113.455 80.8116V75.6157V70.4202H116.28H119.106V67.573V64.7258L121.605 64.8562L124.105 64.9866L124.227 70.3116ZM64.7692 73.0284V75.6366H59.5529H54.3366V73.0284V70.4202H59.5529H64.7692V73.0284ZM102.588 81.0702V91.7202H99.9793H97.3712V86.2865V80.8529H94.763H92.1549V78.2447V75.6366H94.763H97.3712V73.0284V70.4202H99.9793H102.588V81.0702ZM69.9855 78.2447V80.8529H67.3774H64.7692V78.5347C64.7692 77.2593 64.8996 76.0856 65.0592 75.9265C65.2183 75.767 66.3919 75.6366 67.6673 75.6366H69.9855V78.2447ZM16.0836 83.8957V86.5039H13.4755H10.8673V83.8957V81.2876H13.4755H16.0836V83.8957ZM43.0346 83.9088V86.53L48.5769 86.4082L54.1193 86.2865L54.2497 83.787L54.3801 81.2876H59.5747H64.7692V86.5039V91.7202H59.3356H53.9019V94.5457V97.3712H51.2938H48.6856V94.5457V91.7202H43.2519H37.8183V89.112V86.5039H32.3638H26.9097L27.0388 89.2207L27.1683 91.9375L32.5146 92.0597L37.8609 92.1818L37.7309 94.6678L37.6009 97.1538L21.626 97.2677L5.65101 97.3821V94.7682V92.1549H10.8465H16.0423L16.1714 89.438L16.301 86.7212L21.626 86.5991L26.951 86.4769V83.8822V81.2876H34.9928H43.0346V83.9088ZM80.8529 83.8957V86.5039H78.2447H75.6366V89.3294V92.1549H81.0919H86.5473L86.4169 94.6544L86.2865 97.1538L80.9615 97.276L75.6366 97.3981V100.006V102.614L70.3116 102.492L64.9866 102.37L64.8644 97.2838L64.7418 92.197L67.4726 92.0675L70.2029 91.9375L70.325 86.6125L70.4472 81.2876H75.65H80.8529V83.8957ZM91.7202 83.8957V86.5039H89.112H86.5039V83.8957V81.2876H89.112H91.7202V83.8957ZM113.455 86.5039V91.7202H110.847H108.239V86.5039V81.2876H110.847H113.455V86.5039ZM194.308 83.9174V86.5473L191.808 86.4169L189.309 86.2865L189.178 83.787L189.048 81.2876H191.678H194.308V83.9174ZM167.445 89.2207L167.574 91.9375L170.312 92.0675L173.05 92.1975L172.92 94.6757L172.79 97.1538L170.074 97.2834L167.357 97.4125V100V102.588H162.14H156.924V99.9793V97.3712H159.532H162.14V92.2275C162.14 89.3981 162.271 86.9529 162.43 86.7938C162.589 86.6343 163.754 86.5039 165.018 86.5039H167.315L167.445 89.2207ZM97.2843 94.6544L97.1538 97.1538L94.6544 97.2843L92.1549 97.4147V94.7848V92.1549H94.7848H97.4147L97.2843 94.6544ZM107.804 94.7848V97.4147L105.304 97.2843L102.805 97.1538L102.674 94.6544L102.544 92.1549H105.174H107.804V94.7848ZM102.588 99.9793V102.588H99.9793H97.3712V99.9793V97.3712H99.9793H102.588V99.9793ZM53.9019 108.021V113.455H51.2938H48.6856V116.267V119.079L54.0106 119.201L59.3356 119.323L59.4764 120.796C59.5538 121.606 59.5012 122.731 59.3595 123.295L59.1017 124.322H51.2855H43.4693V118.888V113.455H40.6438H37.8183V110.608V107.763L35.1014 107.892L32.3846 108.021L32.2559 110.717L32.1268 113.412L34.8641 113.542L37.6009 113.672L37.7313 116.172L37.8617 118.671H32.4272H26.9923L26.8631 121.388L26.7336 124.105H21.5173H16.301V118.888V113.672L21.626 113.55L26.951 113.428V108.298C26.951 105.476 27.0814 103.037 27.2409 102.877C27.4 102.718 33.464 102.588 40.7164 102.588H53.9019V108.021ZM64.7692 105.196V107.804H62.1611H59.5529V105.196V102.588H62.1611H64.7692V105.196ZM118.671 105.413V108.239H121.497H124.322V105.413V102.588H121.497H118.671V105.413ZM156.489 105.196V107.804H153.881H151.273V110.629V113.455H148.665H146.057V110.629V107.804H140.623H135.189V105.196V102.588H145.839H156.489V105.196ZM178.137 105.304L178.268 107.804H175.638H173.008V105.486C173.008 104.21 173.147 103.028 173.317 102.858C173.487 102.687 174.612 102.606 175.817 102.677L178.007 102.805L178.137 105.304ZM167.357 110.868V113.498L164.857 113.368L162.358 113.237L162.227 110.738L162.097 108.239H164.727H167.357V110.868ZM75.6366 116.063V118.671H73.0284H70.4202V116.063V113.455H73.0284H75.6366V116.063ZM162.14 116.042V118.63L159.424 118.759L156.707 118.888V124.322V129.756L159.424 129.885L162.14 130.014V135.197V140.379L167.465 140.501L172.79 140.623L172.921 143.123L173.051 145.622H167.596H162.14V148.448V151.273H153.881H145.622V156.729V162.184L143.123 162.053L140.623 161.923L140.494 159.206L140.364 156.489H137.777H135.189V153.881V151.273H132.581H129.973V148.665V146.057H132.581H135.189V148.665V151.273H137.798H140.406V143.231V135.189H143.231H146.057V129.756V124.322H148.665H151.273V119.178C151.273 116.349 151.404 113.904 151.563 113.745C151.722 113.585 154.167 113.455 156.997 113.455H162.14V116.042ZM173.008 116.063V118.671H170.4H167.791V116.063V113.455H170.4H173.008V116.063ZM69.9855 121.714V124.322H72.8111H75.6366V126.909V129.497L72.9197 129.626L70.2029 129.756L70.0729 132.493L69.9429 135.232L67.4648 135.102L64.9866 134.972L64.8679 127.039L64.7497 119.106H67.3674H69.9855V121.714ZM167.357 124.322V129.538H164.749H162.14V124.322V119.106H164.749H167.357V124.322ZM15.9884 129.647L15.8663 134.972H13.4755H11.0847L10.9625 129.647L10.8404 124.322H13.4755H16.1106L15.9884 129.647ZM37.8183 126.93V129.538H35.2101H32.602V126.93V124.322H35.2101H37.8183V126.93ZM43.0346 132.581V135.189H48.6856H54.3366V132.581V129.973H56.9708H59.6051L59.5503 133.777C59.5203 135.869 59.5086 138.216 59.5242 138.993L59.5529 140.406H64.7692H69.9855V143.014V145.622H67.3774H64.7692V148.448V151.273H67.5947H70.4202V148.665V146.057H73.0284H75.6366V151.273V156.489H70.2029H64.7692V161.923V167.357H62.1611H59.5529V161.923V156.489H56.9448H54.3366V153.881V151.273H51.5111H48.6856V145.839V140.406H40.6438H32.602V137.798V135.189H35.2101H37.8183V132.581V129.973H40.4264H43.0346V132.581ZM124.235 132.473L124.105 134.972L121.605 135.103L119.106 135.233V132.603V129.973H121.736H124.366L124.235 132.473ZM80.8529 137.798V140.406H75.6366H70.4202V137.798V135.189H75.6366H80.8529V137.798ZM102.588 137.798V140.406H105.196H107.804V145.839V151.273H110.629H113.455V145.839V140.406H110.847H108.239V137.798V135.189H113.455H118.671V140.623V146.057H121.497H124.322V148.665V151.273H126.93H129.538V156.707V162.14H121.497H113.455V159.315V156.489H105.413H97.3712V153.881V151.273H94.7839H92.1962L92.0671 148.556L91.9375 145.839L89.2207 145.71L86.5039 145.581V153.86V162.14H83.6784H80.8529V167.596V173.051L78.3534 172.921L75.8539 172.79L75.7244 170.074L75.5953 167.357H73.0075H70.4202V164.749V162.14H73.0284H75.6366V159.532V156.924H78.4621H81.2876V148.665V140.406H89.3294H97.3712V137.798V135.189H99.9793H102.588V137.798ZM129.538 137.798V140.406H126.93H124.322V137.798V135.189H126.93H129.538V137.798ZM151.273 140.623V146.057H154.099H156.924V140.623V135.189H154.099H151.273V140.623ZM43.0346 148.665V151.273H37.8183H32.602V148.665V146.057H37.8183H43.0346V148.665ZM183.875 148.665V151.273H178.441H173.008V148.665V146.057H178.441H183.875V148.665ZM194.308 148.665V151.273H191.7H189.091V148.665V146.057H191.7H194.308V148.665ZM0 154.099V156.924H5.43366H10.8673V154.099V151.273H5.43366H0V154.099ZM48.5987 153.99L48.7291 156.489H46.0992H43.4693V153.86V151.23L45.9688 151.36L48.4683 151.49L48.5987 153.99ZM118.671 154.099V156.924H121.497H124.322V154.099V151.273H121.497H118.671V154.099ZM172.909 164.857L172.79 172.79L164.857 172.909L156.924 173.027V164.976V156.924H164.976H173.027L172.909 164.857ZM0 181.05V199.959H18.9091H37.8183V181.05V162.14H18.9091H0V181.05ZM97.2843 164.857L97.4147 167.357H94.7848H92.1549V164.727V162.097L94.6544 162.227L97.1538 162.358L97.2843 164.857ZM162.14 164.987V167.833L164.857 167.704L167.574 167.574L167.704 164.857L167.833 162.14H164.987H162.14V164.987ZM32.1673 181.05V194.308H18.9091H5.65101V181.05V167.791H18.9091H32.1673V181.05ZM69.9855 173.029V178.268L67.4861 178.137L64.9866 178.007L64.864 172.899L64.7418 167.791H67.3635H69.9855V173.029ZM91.7202 170.421V173.051L89.2207 172.921L86.7212 172.79L86.5908 170.291L86.4604 167.791H89.0903H91.7202V170.421ZM118.671 170.4V173.008H116.063H113.455V175.616V178.224H108.042H102.629L102.5 180.941L102.37 183.658L97.2625 183.78L92.1549 183.902V178.455V173.008H100.197H108.239V170.4V167.791H113.455H118.671V170.4ZM129.634 173.116L129.756 178.441L132.486 178.571L135.217 178.701L135.094 183.788L134.972 188.874L132.255 189.004L129.538 189.133V191.72V194.308H126.93H124.322V186.266V178.224H121.714H119.106V175.616V173.008H121.714H124.322V170.4V167.791H126.917H129.512L129.634 173.116ZM151.273 178.441V189.091H148.665H146.057V186.504V183.916L143.34 183.787L140.623 183.658L140.501 178.333L140.379 173.008H137.784H135.189V170.4V167.791H143.231H151.273V178.441ZM10.8673 181.05V189.091H18.9091H26.951V181.05V173.008H18.9091H10.8673V181.05ZM86.4087 178.333L86.2865 183.658L78.3534 183.776L70.4202 183.895V181.29V178.686L75.7452 178.564L81.0702 178.441L81.1998 175.725L81.3289 173.008H83.9296H86.5308L86.4087 178.333ZM162.053 181.158L161.923 183.658L159.424 183.788L156.924 183.919V181.289V178.659H159.554H162.184L162.053 181.158ZM69.9855 186.483V189.091H64.7692H59.5529V186.483V183.875H64.7692H69.9855V186.483ZM118.671 186.483V189.091H116.063H113.455V186.483V183.875H116.063H118.671V186.483ZM80.8529 191.7V194.308H78.2447H75.6366V191.989C75.6366 190.714 75.767 189.54 75.9265 189.381C76.0856 189.222 77.2593 189.091 78.5347 189.091H80.8529V191.7ZM140.406 191.7V194.308H137.798H135.189V191.7V189.091H137.798H140.406V191.7ZM194.308 191.7V194.308H191.7H189.091V191.989C189.091 190.714 189.222 189.54 189.381 189.381C189.54 189.222 190.714 189.091 191.989 189.091H194.308V191.7ZM156.667 194.906C156.541 195.235 156.498 196.458 156.572 197.623L156.707 199.741L159.424 199.871L162.14 200V197.154V194.308H159.519C157.693 194.308 156.827 194.489 156.667 194.906Z" fill="#2C3034" />
</svg>
