<svg width="41" height="40" viewBox="0 0 41 40" fill="none" xmlns="http://www.w3.org/2000/svg">
    <path fill-rule="evenodd" clip-rule="evenodd" d="M20.2333 11.6831L22.2087 8L24.798 16.6766L20.9158 14.9215L20.2333 11.6831ZM6.26367 15.5409L4.25541 19.1621L10.3958 22.1661L18.8471 21.5828L6.26367 15.5409ZM5.14443 22.3694L3.14844 25.9713L15.4081 32.0575L35.8386 30.8174L37.8346 27.2154L17.4041 28.4557L5.14443 22.3694Z" fill="#2C3034" />
    <path d="M37.8355 27.2157L17.4108 28.4561L5.0459 22.3554L18.4353 21.5453L6.26344 15.5409L12.2406 10.4786L24.6396 16.5763L22.2085 8L34.0566 13.81L37.8355 27.2157Z" fill="#FDBF1C" />
    <rect x="14.5" y="25" width="14" height="14" rx="7" fill="#359C2C" />
    <rect x="20.5" y="28" width="2" height="8" fill="white" />
    <rect x="17.5" y="33" width="2" height="8" transform="rotate(-90 17.5 33)" fill="white" />
</svg>
