<svg width="40" height="41" viewBox="0 0 40 41" fill="none" xmlns="http://www.w3.org/2000/svg">
	<g clip-path="url(#clip0_4940_13889)">
		<path fill-rule="evenodd" clip-rule="evenodd" d="M11.0182 9.01679C10.4445 9.09412 9.92036 9.38682 9.54052 9.84205C9.25288 10.1868 9.06639 10.623 9.01107 11.0805C9.00345 11.1436 8.99985 14.0369 9 20.0051C9.00018 27.5419 9.00249 28.8533 9.01572 28.9519C9.15876 30.0181 9.98065 30.8409 11.0457 30.984C11.1816 31.0023 11.4747 31.0047 11.607 30.9887C12.1262 30.9258 12.5952 30.704 12.9694 30.3445C13.1292 30.191 13.2122 30.0832 13.491 29.6677C13.627 29.4648 14.6843 27.894 15.8404 26.1771C16.9966 24.4602 17.9574 23.0257 17.9756 22.9894C17.9939 22.953 18.0144 22.8914 18.0212 22.8525C18.0563 22.6527 17.936 22.4363 17.7342 22.3363C17.6546 22.2968 17.6489 22.2957 17.5294 22.2957C17.4074 22.2957 17.4059 22.296 17.3223 22.3397C17.251 22.377 16.8871 22.6877 14.9578 24.3589C13.7038 25.4452 12.6632 26.3417 12.6455 26.351C12.5746 26.3882 12.4782 26.3635 12.4298 26.2956L12.4042 26.2597V20.053V13.8462L12.4272 13.8151C12.4841 13.7384 12.5939 13.7126 12.6638 13.7596C12.6844 13.7735 14.4551 15.8855 16.5988 18.4531C22.2881 25.2674 23.5528 26.7825 25.0597 28.5886C25.805 29.4818 26.46 30.259 26.5153 30.3155C26.8179 30.6247 27.1804 30.8306 27.6059 30.9349C27.8349 30.991 27.9443 31 28.3989 31C28.8379 31 28.9507 30.9924 29.1514 30.9494C29.8503 30.7995 30.4452 30.3323 30.7625 29.6842C30.8798 29.4443 30.9595 29.1728 30.9876 28.9166C31.0041 28.7658 31.0041 11.2339 30.9876 11.0831C30.8891 10.1857 30.2601 9.40567 29.4049 9.12023C29.1493 9.03492 28.9308 9.00013 28.6509 9.00013C28.121 9.00013 27.6334 9.16076 27.2191 9.47179C27.0924 9.56692 26.9051 9.74859 26.8042 9.87424C26.692 10.0139 22.0113 16.9748 21.9806 17.0476C21.8828 17.2796 22.0057 17.5544 22.2604 17.6731C22.3124 17.6973 22.3458 17.7045 22.4213 17.7077C22.534 17.7124 22.6073 17.6943 22.691 17.6411C22.7224 17.6212 23.7684 16.7155 25.0155 15.6284C26.2626 14.5413 27.3047 13.6402 27.3313 13.6258C27.4188 13.5787 27.5153 13.6129 27.5575 13.7061C27.5773 13.7497 27.5779 13.939 27.5782 19.9342L27.5784 26.1174L27.5537 26.1665C27.5109 26.2514 27.397 26.2897 27.3176 26.2459C27.2984 26.2353 27.2414 26.1771 27.1909 26.1166C27.1404 26.056 26.3194 25.0724 25.3664 23.9308C24.4135 22.7893 21.3652 19.1374 18.5924 15.8156C15.8197 12.4938 13.5059 9.72978 13.4507 9.67331C13.0947 9.30945 12.6349 9.08243 12.1204 9.01637C11.9488 8.99433 11.1827 8.99462 11.0182 9.01679Z" fill="black" />
	</g>
</svg>
