<svg width="160" height="46" viewBox="0 0 160 46" fill="none" xmlns="http://www.w3.org/2000/svg">
    <g clip-path="url(#clip0_4903_31913)">
        <rect width="160" height="46" rx="8" fill="#2C3034" />
        <path d="M35.2109 22.7412C35.1762 18.8894 38.3738 17.0155 38.52 16.9283C36.7091 14.2955 33.9022 13.9358 32.9158 13.9071C30.5584 13.6597 28.2716 15.3137 27.0707 15.3137C25.8458 15.3137 23.9966 13.931 22.0034 13.9716C19.4387 14.011 17.0393 15.4918 15.7233 17.7911C13.0075 22.4795 15.033 29.3692 17.6349 33.1589C18.9365 35.0149 20.4574 37.0872 22.4481 37.0143C24.3957 36.9342 25.1231 35.7762 27.4734 35.7762C29.8021 35.7762 30.4852 37.0143 32.5155 36.9677C34.6057 36.9342 35.9216 35.1033 37.1777 33.2306C38.6818 31.1033 39.2858 29.0083 39.3098 28.9008C39.2607 28.884 35.2505 27.3579 35.2109 22.7412Z" fill="#F3EBEA" />
        <path d="M31.3757 11.4141C32.4232 10.1079 33.1399 8.33075 32.941 6.52734C31.4249 6.59427 29.5288 7.57305 28.437 8.85061C27.471 9.9764 26.6081 11.8216 26.831 13.5569C28.5341 13.6836 30.2827 12.7 31.3757 11.4141Z" fill="#F3EBEA" />
        <path d="M63.3929 36.7481H60.6711L59.1802 32.0765H53.9978L52.5776 36.7481H49.9277L55.0621 20.8438H58.2333L63.3929 36.7481ZM58.7307 30.1165L57.3824 25.9636C57.2398 25.5393 56.9725 24.5402 56.5782 22.9674H56.5303C56.3733 23.6439 56.1204 24.643 55.7728 25.9636L54.4485 30.1165H58.7307Z" fill="#F3EBEA" />
        <path d="M76.5968 30.8715C76.5968 32.8219 76.0683 34.3635 75.0112 35.4953C74.0644 36.5028 72.8887 37.0059 71.4852 37.0059C69.9703 37.0059 68.8821 36.4633 68.2193 35.3782H68.1714V41.4194H65.6162V29.0537C65.6162 27.8275 65.5838 26.5691 65.5215 25.2784H67.7687L67.9113 27.0961H67.9592C68.8114 25.7266 70.1046 25.043 71.84 25.043C73.1967 25.043 74.3293 25.5772 75.2353 26.6468C76.1438 27.7176 76.5968 29.1254 76.5968 30.8715ZM73.9937 30.9647C73.9937 29.8485 73.742 28.9282 73.2362 28.204C72.6837 27.4487 71.9419 27.0711 71.0118 27.0711C70.3814 27.0711 69.8085 27.2814 69.2968 27.6961C68.7838 28.1144 68.4482 28.6605 68.2912 29.337C68.2121 29.6525 68.1726 29.9106 68.1726 30.1138V32.0259C68.1726 32.8601 68.429 33.564 68.942 34.1389C69.455 34.7137 70.1213 35.0005 70.9411 35.0005C71.9035 35.0005 72.6526 34.63 73.1883 33.8915C73.7252 33.1517 73.9937 32.1765 73.9937 30.9647Z" fill="#F3EBEA" />
        <path d="M89.8242 30.8715C89.8242 32.8219 89.2956 34.3635 88.2373 35.4953C87.2917 36.5028 86.116 37.0059 84.7125 37.0059C83.1976 37.0059 82.1094 36.4633 81.4478 35.3782H81.3999V41.4194H78.8447V29.0537C78.8447 27.8275 78.8123 26.5691 78.75 25.2784H80.9972L81.1398 27.0961H81.1877C82.0387 25.7266 83.3319 25.043 85.0685 25.043C86.424 25.043 87.5566 25.5772 88.4651 26.6468C89.3699 27.7176 89.8242 29.1254 89.8242 30.8715ZM87.221 30.9647C87.221 29.8485 86.9681 28.9282 86.4624 28.204C85.9098 27.4487 85.1704 27.0711 84.2391 27.0711C83.6075 27.0711 83.0358 27.2814 82.5229 27.6961C82.0099 28.1144 81.6755 28.6605 81.5185 29.337C81.4406 29.6525 81.3999 29.9106 81.3999 30.1138V32.0259C81.3999 32.8601 81.6564 33.564 82.1669 34.1389C82.6799 34.7125 83.3463 35.0005 84.1684 35.0005C85.1308 35.0005 85.8799 34.63 86.4156 33.8915C86.9526 33.1517 87.221 32.1765 87.221 30.9647Z" fill="#F3EBEA" />
        <path d="M104.614 32.2867C104.614 33.6395 104.143 34.7402 103.197 35.5899C102.158 36.5185 100.711 36.9822 98.8524 36.9822C97.1361 36.9822 95.7602 36.6524 94.7188 35.9915L95.3108 33.8678C96.4326 34.5442 97.6635 34.8836 99.0046 34.8836C99.967 34.8836 100.716 34.6661 101.254 34.2335C101.79 33.8009 102.057 33.2201 102.057 32.4958C102.057 31.8505 101.837 31.3067 101.394 30.8657C100.955 30.4247 100.22 30.0148 99.194 29.636C96.4014 28.5974 95.0064 27.0761 95.0064 25.0755C95.0064 23.768 95.4954 22.696 96.4746 21.8618C97.4501 21.0265 98.7517 20.6094 100.379 20.6094C101.831 20.6094 103.036 20.8615 103.999 21.3647L103.36 23.4418C102.461 22.9542 101.445 22.7104 100.307 22.7104C99.4085 22.7104 98.7062 22.9315 98.2028 23.3712C97.7773 23.7644 97.564 24.2437 97.564 24.8113C97.564 25.44 97.8073 25.9598 98.2963 26.3686C98.7217 26.7462 99.4948 27.1549 100.617 27.5959C101.989 28.1469 102.997 28.791 103.645 29.5296C104.291 30.2658 104.614 31.1872 104.614 32.2867Z" fill="#F3EBEA" />
        <path d="M113.063 27.1915H110.246V32.7595C110.246 34.1757 110.742 34.8832 111.737 34.8832C112.194 34.8832 112.572 34.8437 112.872 34.7648L112.943 36.6997C112.439 36.8873 111.777 36.9818 110.956 36.9818C109.947 36.9818 109.158 36.6746 108.589 36.0615C108.022 35.4473 107.736 34.4171 107.736 32.9698V27.1891H106.059V25.277H107.736V23.1772L110.246 22.4219V25.277H113.063V27.1915Z" fill="#F3EBEA" />
        <path d="M125.771 30.9169C125.771 32.6796 125.265 34.1269 124.256 35.2587C123.197 36.4239 121.793 37.0047 120.042 37.0047C118.354 37.0047 117.011 36.4466 116.009 35.3304C115.007 34.2142 114.506 32.8051 114.506 31.1069C114.506 29.3298 115.021 27.8742 116.056 26.7424C117.087 25.6094 118.48 25.043 120.231 25.043C121.919 25.043 123.276 25.6011 124.301 26.7185C125.282 27.8025 125.771 29.2019 125.771 30.9169ZM123.119 30.9993C123.119 29.9417 122.893 29.0346 122.434 28.2781C121.898 27.3627 121.132 26.9061 120.14 26.9061C119.113 26.9061 118.333 27.3638 117.797 28.2781C117.338 29.0358 117.111 29.9572 117.111 31.0471C117.111 32.1048 117.338 33.0119 117.797 33.7672C118.349 34.6826 119.121 35.1392 120.117 35.1392C121.093 35.1392 121.859 34.6731 122.411 33.7433C122.882 32.9724 123.119 32.0558 123.119 30.9993Z" fill="#F3EBEA" />
        <path d="M134.075 27.5192C133.822 27.4726 133.552 27.4487 133.27 27.4487C132.371 27.4487 131.676 27.7869 131.187 28.4645C130.761 29.0621 130.548 29.8174 130.548 30.7292V36.7466H127.994L128.018 28.89C128.018 27.5682 127.985 26.3647 127.922 25.2796H130.148L130.241 27.4738H130.312C130.581 26.7197 131.007 26.1126 131.589 25.6572C132.159 25.2473 132.773 25.043 133.436 25.043C133.672 25.043 133.886 25.0597 134.075 25.0896V27.5192Z" fill="#F3EBEA" />
        <path d="M145.502 30.4719C145.502 30.9284 145.472 31.3132 145.409 31.6275H137.743C137.773 32.7605 138.143 33.6269 138.855 34.2245C139.501 34.7587 140.337 35.0264 141.362 35.0264C142.497 35.0264 143.533 34.8459 144.464 34.4838L144.864 36.2526C143.776 36.7258 142.491 36.9613 141.009 36.9613C139.226 36.9613 137.826 36.4378 136.807 35.3921C135.791 34.3464 135.281 32.9422 135.281 31.1806C135.281 29.4513 135.755 28.0112 136.703 26.8627C137.695 25.6365 139.036 25.0234 140.724 25.0234C142.381 25.0234 143.636 25.6365 144.488 26.8627C145.163 27.8367 145.502 29.0414 145.502 30.4719ZM143.066 29.811C143.082 29.0557 142.916 28.4032 142.569 27.8522C142.127 27.1435 141.448 26.7898 140.533 26.7898C139.698 26.7898 139.018 27.1352 138.499 27.8283C138.074 28.3793 137.821 29.0402 137.743 29.8098H143.066V29.811Z" fill="#F3EBEA" />
        <path d="M57.888 11.0613C57.888 12.468 57.465 13.5268 56.62 14.2379C55.8374 14.894 54.7252 15.2227 53.2846 15.2227C52.5703 15.2227 51.959 15.1916 51.4473 15.1295V7.44378C52.1148 7.33622 52.8339 7.28125 53.6106 7.28125C54.9828 7.28125 56.0172 7.57883 56.7147 8.17399C57.4961 8.84683 57.888 9.80888 57.888 11.0613ZM56.5637 11.096C56.5637 10.1841 56.3216 9.48501 55.8374 8.99741C55.3532 8.51101 54.6461 8.26721 53.7148 8.26721C53.3193 8.26721 52.9825 8.2935 52.7033 8.34847V14.1913C52.8579 14.2152 53.1408 14.226 53.5518 14.226C54.513 14.226 55.2549 13.9595 55.7775 13.4264C56.3 12.8934 56.5637 12.1166 56.5637 11.096Z" fill="#F3EBEA" />
        <path d="M64.9104 12.2912C64.9104 13.1577 64.6623 13.8675 64.1662 14.4245C63.646 14.9969 62.9569 15.2825 62.0964 15.2825C61.267 15.2825 60.6066 15.0089 60.114 14.4591C59.6226 13.9106 59.377 13.2186 59.377 12.3844C59.377 11.512 59.6298 10.7961 60.138 10.2404C60.6462 9.68471 61.3293 9.40625 62.1898 9.40625C63.0192 9.40625 63.6856 9.67993 64.1901 10.2285C64.6695 10.7615 64.9104 11.4499 64.9104 12.2912ZM63.6077 12.3318C63.6077 11.812 63.495 11.3662 63.2709 10.9945C63.0072 10.5452 62.6321 10.3205 62.1443 10.3205C61.6397 10.3205 61.2562 10.5452 60.9925 10.9945C60.7672 11.3662 60.6558 11.8192 60.6558 12.3546C60.6558 12.8744 60.7684 13.3202 60.9925 13.6919C61.2646 14.1412 61.6433 14.3659 62.1323 14.3659C62.6117 14.3659 62.988 14.1376 63.2589 13.6799C63.4914 13.3011 63.6077 12.8517 63.6077 12.3318Z" fill="#F3EBEA" />
        <path d="M74.3264 9.51953L72.5586 15.1532H71.408L70.6758 12.7069C70.49 12.0962 70.339 11.4891 70.2215 10.8867H70.1987C70.0897 11.5058 69.9387 12.1117 69.7445 12.7069L68.9667 15.1532H67.8029L66.1406 9.51953H67.4314L68.0702 12.1977C68.2248 12.8311 68.3519 13.4347 68.4537 14.0059H68.4765C68.57 13.5351 68.7246 12.9351 68.9427 12.2097L69.7445 9.52073H70.768L71.5363 12.1523C71.722 12.7941 71.8731 13.412 71.9893 14.0071H72.0241C72.1092 13.4275 72.2374 12.8096 72.4076 12.1523L73.0931 9.52073H74.3264V9.51953Z" fill="#F3EBEA" />
        <path d="M80.837 15.1544H79.5809V11.9276C79.5809 10.9333 79.2022 10.4361 78.4424 10.4361C78.0696 10.4361 77.7688 10.5723 77.5351 10.846C77.3038 11.1197 77.1863 11.4424 77.1863 11.8117V15.1532H75.9303V11.1305C75.9303 10.6357 75.9147 10.0991 75.8848 9.51827H76.9886L77.0473 10.3991H77.0821C77.2283 10.1254 77.4464 9.89951 77.7329 9.71905C78.0732 9.50871 78.4543 9.40234 78.8714 9.40234C79.3988 9.40234 79.8374 9.57205 80.1862 9.91265C80.62 10.3297 80.837 10.9524 80.837 11.7794V15.1544Z" fill="#F3EBEA" />
        <path d="M84.3008 15.1523H83.0469V6.93359H84.3008V15.1523Z" fill="#F3EBEA" />
        <path d="M91.6956 12.2912C91.6956 13.1577 91.4475 13.8675 90.9513 14.4245C90.4312 14.9969 89.7408 15.2825 88.8815 15.2825C88.051 15.2825 87.3906 15.0089 86.8992 14.4591C86.4078 13.9106 86.1621 13.2186 86.1621 12.3844C86.1621 11.512 86.415 10.7961 86.9232 10.2404C87.4313 9.68471 88.1145 9.40625 88.9738 9.40625C89.8044 9.40625 90.4695 9.67993 90.9753 10.2285C91.4547 10.7615 91.6956 11.4499 91.6956 12.2912ZM90.3916 12.3318C90.3916 11.812 90.279 11.3662 90.0548 10.9945C89.7924 10.5452 89.416 10.3205 88.9294 10.3205C88.4237 10.3205 88.0402 10.5452 87.7777 10.9945C87.5524 11.3662 87.4409 11.8192 87.4409 12.3546C87.4409 12.8744 87.5536 13.3202 87.7777 13.6919C88.0497 14.1412 88.4285 14.3659 88.9175 14.3659C89.3969 14.3659 89.772 14.1376 90.0429 13.6799C90.2766 13.3011 90.3916 12.8517 90.3916 12.3318Z" fill="#F3EBEA" />
        <path d="M97.7749 15.1547H96.6471L96.5536 14.5057H96.5189C96.133 15.0232 95.5829 15.2825 94.8686 15.2825C94.3352 15.2825 93.9038 15.1116 93.579 14.7722C93.2841 14.4639 93.1367 14.0803 93.1367 13.6249C93.1367 12.9366 93.4244 12.4119 94.0032 12.0486C94.5809 11.6853 95.3935 11.5072 96.4398 11.5156V11.4104C96.4398 10.6683 96.0491 10.2978 95.2665 10.2978C94.7092 10.2978 94.2178 10.4376 93.7935 10.7149L93.5382 9.89265C94.0632 9.56878 94.7116 9.40625 95.4762 9.40625C96.9527 9.40625 97.6934 10.1831 97.6934 11.7367V13.8114C97.6934 14.3743 97.721 14.8224 97.7749 15.1547ZM96.4709 13.2186V12.3498C95.0855 12.3259 94.3928 12.7047 94.3928 13.4851C94.3928 13.7791 94.4718 13.999 94.6336 14.146C94.7954 14.293 95.0016 14.3659 95.2473 14.3659C95.5229 14.3659 95.7806 14.2787 96.0155 14.1054C96.2516 13.9309 96.3966 13.7098 96.4506 13.4385C96.4638 13.3776 96.4709 13.3035 96.4709 13.2186Z" fill="#F3EBEA" />
        <path d="M104.911 15.1523H103.796L103.737 14.2476H103.703C103.347 14.936 102.74 15.2802 101.888 15.2802C101.207 15.2802 100.641 15.0137 100.191 14.4806C99.7417 13.9476 99.5176 13.2557 99.5176 12.4059C99.5176 11.4941 99.7609 10.7555 100.25 10.1914C100.723 9.66559 101.303 9.40267 101.994 9.40267C102.752 9.40267 103.283 9.65722 103.585 10.1675H103.609V6.93359H104.866V13.6345C104.866 14.1831 104.881 14.6886 104.911 15.1523ZM103.609 12.7764V11.8371C103.609 11.6745 103.597 11.5431 103.574 11.4427C103.504 11.1415 103.352 10.8882 103.12 10.6838C102.887 10.4794 102.605 10.3767 102.28 10.3767C101.811 10.3767 101.445 10.5619 101.175 10.9336C100.908 11.3053 100.772 11.7797 100.772 12.3593C100.772 12.9163 100.901 13.368 101.158 13.7158C101.43 14.0863 101.797 14.2715 102.256 14.2715C102.668 14.2715 102.998 14.1173 103.249 13.8078C103.491 13.5222 103.609 13.178 103.609 12.7764Z" fill="#F3EBEA" />
        <path d="M115.653 12.2912C115.653 13.1577 115.405 13.8675 114.908 14.4245C114.388 14.9969 113.7 15.2825 112.839 15.2825C112.01 15.2825 111.35 15.0089 110.856 14.4591C110.365 13.9106 110.119 13.2186 110.119 12.3844C110.119 11.512 110.372 10.7961 110.88 10.2404C111.388 9.68471 112.071 9.40625 112.933 9.40625C113.761 9.40625 114.429 9.67993 114.932 10.2285C115.412 10.7615 115.653 11.4499 115.653 12.2912ZM114.351 12.3318C114.351 11.812 114.238 11.3662 114.014 10.9945C113.749 10.5452 113.375 10.3205 112.886 10.3205C112.383 10.3205 112 10.5452 111.735 10.9945C111.509 11.3662 111.398 11.8192 111.398 12.3546C111.398 12.8744 111.511 13.3202 111.735 13.6919C112.007 14.1412 112.386 14.3659 112.874 14.3659C113.354 14.3659 113.731 14.1376 114.002 13.6799C114.234 13.3011 114.351 12.8517 114.351 12.3318Z" fill="#F3EBEA" />
        <path d="M122.406 15.1544H121.151V11.9276C121.151 10.9333 120.773 10.4361 120.011 10.4361C119.639 10.4361 119.338 10.5723 119.105 10.846C118.873 11.1197 118.757 11.4424 118.757 11.8117V15.1532H117.499V11.1305C117.499 10.6357 117.485 10.0991 117.455 9.51827H118.558L118.616 10.3991H118.651C118.799 10.1254 119.017 9.89951 119.302 9.71905C119.644 9.50871 120.023 9.40234 120.442 9.40234C120.968 9.40234 121.407 9.57205 121.755 9.91265C122.19 10.3297 122.406 10.9524 122.406 11.7794V15.1544Z" fill="#F3EBEA" />
        <path d="M130.861 10.4584H129.478V13.1952C129.478 13.8907 129.723 14.2385 130.21 14.2385C130.435 14.2385 130.622 14.2194 130.77 14.1799L130.802 15.13C130.554 15.2232 130.228 15.2698 129.827 15.2698C129.33 15.2698 128.944 15.1193 128.665 14.8181C128.385 14.5169 128.246 14.0102 128.246 13.2991V10.4584H127.42V9.52023H128.246V8.48767L129.477 8.11719V9.51904H130.86V10.4584H130.861Z" fill="#F3EBEA" />
        <path d="M137.508 15.1523H136.251V11.9494C136.251 10.9396 135.872 10.434 135.114 10.434C134.531 10.434 134.133 10.7268 133.915 11.3124C133.878 11.4355 133.856 11.5861 133.856 11.763V15.1511H132.602V6.93359H133.856V10.3289H133.88C134.276 9.711 134.843 9.40267 135.577 9.40267C136.098 9.40267 136.528 9.57237 136.869 9.91297C137.295 10.3372 137.508 10.9682 137.508 11.8024V15.1523Z" fill="#F3EBEA" />
        <path d="M144.369 12.0704C144.369 12.295 144.352 12.4839 144.322 12.638H140.555C140.572 13.1949 140.752 13.6192 141.1 13.9132C141.419 14.1761 141.83 14.3076 142.334 14.3076C142.891 14.3076 143.399 14.2191 143.857 14.0411L144.053 14.9111C143.518 15.143 142.887 15.2589 142.157 15.2589C141.282 15.2589 140.593 15.0019 140.095 14.488C139.594 13.9741 139.346 13.2846 139.346 12.4193C139.346 11.5696 139.577 10.8621 140.043 10.298C140.53 9.6957 141.188 9.39453 142.018 9.39453C142.831 9.39453 143.448 9.6957 143.865 10.298C144.202 10.7761 144.369 11.3676 144.369 12.0704ZM143.17 11.7465C143.18 11.3748 143.097 11.0545 142.927 10.7844C142.709 10.4367 142.377 10.2622 141.927 10.2622C141.517 10.2622 141.183 10.4319 140.928 10.7725C140.719 11.0438 140.596 11.3676 140.555 11.7465H143.17Z" fill="#F3EBEA" />
    </g>
    <defs>
        <clipPath id="clip0_4903_31913">
            <rect width="160" height="46" rx="8" fill="white" />
        </clipPath>
    </defs>
</svg>
