<svg width="159" height="36" viewBox="0 0 159 36" fill="none" xmlns="http://www.w3.org/2000/svg">
    <g clip-path="url(#clip0_4903_31788)">
        <path fill-rule="evenodd" clip-rule="evenodd" d="M26.0926 5.24136L28.9722 -0.0654297L32.7469 12.4364L27.0876 9.90749L26.0926 5.24136ZM5.72816 10.8L2.8006 16.0177L11.7519 20.3459L24.0718 19.5055L5.72816 10.8ZM4.09657 20.6389L1.18689 25.8288L19.0586 34.5981L48.8415 32.8112L51.7512 27.6213L21.9683 29.4084L4.09657 20.6389Z" fill="#2C3034" />
        <path d="M51.7527 27.6217L21.9783 29.409L3.95325 20.6187L23.4719 19.4514L5.72814 10.7999L14.4414 3.5059L32.5163 12.2919L28.9724 -0.0654297L46.244 8.30595L51.7527 27.6217Z" fill="#FDBF1C" />
        <path d="M68.8116 31.8762V22.8083H77.4459V31.8762H83.9218V8.05078H77.4459V17.1187H68.8116V8.05078H62.3357V31.8762H68.8116Z" fill="#2C3034" />
        <path d="M105.153 31.8762V26.1865H93.1726V22.8083H103.354V17.1187H93.1726V13.7405H105.153V8.05078H86.6967V31.8762H105.153Z" fill="#2C3034" />
        <path d="M114.263 31.8762V23.3417H114.767C116.746 23.3417 117.645 23.9463 118.616 25.5109L122.609 31.8762H129.985L126.531 26.5066C125.309 24.6219 124.229 23.0928 121.747 22.4883C125.848 22.1327 128.977 20.1058 128.977 15.5185C128.977 10.2556 124.948 8.05078 119.337 8.05078H107.788V31.8762H114.263ZM119.408 13.7405C121.243 13.7405 122.142 14.4872 122.142 15.9807C122.142 17.4387 121.243 18.2211 119.408 18.2211H114.263V13.7405H119.408Z" fill="#2C3034" />
        <path d="M149.819 31.8762V26.1865H137.838V22.8083H148.019V17.1187H137.838V13.7405H149.819V8.05078H131.363V31.8762H149.819Z" fill="#2C3034" />
        <path d="M158.093 31.8768V25.7959H151.618V31.8768H158.093Z" fill="#2C3034" />
        <path d="M158.093 31.8768V25.7959H151.618V31.8768H158.093Z" fill="#FD84E3" />
    </g>
    <defs>
        <clipPath id="clip0_4903_31788">
            <rect width="159" height="36" fill="white" />
        </clipPath>
    </defs>
</svg>
