<svg width="222" height="332" viewBox="0 0 222 332" fill="none" xmlns="http://www.w3.org/2000/svg">
<g opacity="0.3">
<path fill-rule="evenodd" clip-rule="evenodd" d="M120.516 0.0204316C106.056 0.527149 93.4992 4.48382 83.0497 11.826C76.2269 16.6201 70.611 22.7577 66.6532 29.7463C66.0543 30.8036 65.5082 31.6689 65.4398 31.6689C65.3711 31.6689 64.6493 31.0375 63.8356 30.266C63.0218 29.4944 61.8575 28.4889 61.2481 28.0317C60.6388 27.5744 60.0336 27.1068 59.9034 26.9924C58.9677 26.1711 56.3242 24.4314 55.0078 23.7705C49.621 21.0663 44.2115 20.6628 38.6643 22.5517C31.378 25.0327 26.5683 29.8719 22.8884 38.4237C22.231 39.9516 21.8954 40.9606 20.6768 45.0747C20.1413 46.8831 19.2468 52.1147 19.0441 54.6242C18.8161 57.4491 18.8917 64.7346 19.1748 67.2098C19.5854 70.8003 20.3882 75.4648 20.9813 77.7058C22.0856 81.8782 22.6077 83.4742 24.2119 87.5783C25.2889 90.3338 28.7376 97.0184 30.3018 99.3822C32.2538 102.332 34.6501 105.291 37.1896 107.887L39.3346 110.08L39.4769 111.711C39.7357 114.674 41.2383 119.135 43.4898 123.626C46.0305 128.694 54.5697 137.433 62.2671 142.845C67.8748 146.787 73.2924 149.99 79.4298 152.99C80.2307 153.382 81.1768 153.85 81.5322 154.03L82.1783 154.358L80.8471 156.319C80.1148 157.398 79.4246 158.39 79.3129 158.523C78.8338 159.093 78.3507 159.704 77.7861 160.455C76.6756 161.933 71.3331 167.055 68.6778 169.187C65.6272 171.638 64.8881 172.082 58.245 175.465C55.5179 176.853 52.4286 178.566 51.3799 179.27C49.786 180.341 46.4083 182.818 46.0405 183.185C45.9833 183.243 45.328 183.747 44.5843 184.307C43.1535 185.384 38.946 189.528 37.1991 191.581C36.6271 192.253 36.0593 192.907 35.9376 193.035C34.9942 194.02 30.7585 200.238 28.7474 203.59C24.0933 211.346 18.3048 225.338 14.5309 237.952C14.2232 238.98 13.8905 240.056 13.7919 240.342C13.6933 240.628 13.1803 242.405 12.6521 244.291C12.1241 246.177 11.5186 248.328 11.3068 249.071C11.095 249.814 10.1599 253.509 9.22874 257.281C8.2978 261.053 7.26928 265.215 6.9435 266.53C5.89106 270.777 3.32727 284.925 2.87605 288.977C2.81863 289.491 2.68154 290.567 2.57108 291.367C2.46082 292.167 2.27442 293.523 2.15688 294.381C1.24382 301.047 0.307057 315.103 0.131062 324.777L0 332H41.2558L41.2701 331.324C41.278 330.953 41.3136 330.415 41.349 330.129C41.3846 329.844 41.4748 327.646 41.5499 325.245C41.6248 322.845 41.7272 320.179 41.7773 319.322C41.8275 318.464 41.9213 316.266 41.9862 314.437C42.1166 310.749 42.1622 309.958 42.6153 303.526C42.9677 298.523 43.277 295.696 44.1855 289.185C44.7753 284.958 46.7514 272.904 47.3717 269.751C47.5292 268.951 47.9911 266.473 48.3982 264.244C48.8053 262.015 49.3285 259.349 49.5609 258.32C49.7932 257.291 50.3659 254.579 50.8336 252.293C51.3013 250.006 51.9624 247.028 52.3029 245.674C53.0542 242.685 56.3696 230.903 56.6837 230.106C56.9277 229.486 57.3756 229.301 57.188 229.898C56.7765 231.206 53.6046 244.613 53.0209 247.512C51.9909 252.626 50.3185 262.577 49.5798 267.985C49.2284 270.557 48.7115 274.064 48.431 275.779C47.7666 279.84 47.5465 281.326 47.3842 282.845C47.1548 284.994 46.7006 288.748 46.2652 292.094C45.8976 294.919 45.7204 296.56 45.3105 300.928C44.6569 307.897 44.1593 318.245 44.0788 326.544L44.0259 332H169.857L169.718 331.117C169.642 330.631 169.397 329.625 169.174 328.882C168.951 328.139 168.169 325.1 167.438 322.128C166.705 319.155 165.441 314.105 164.628 310.904C161.539 298.748 159.987 290.038 158.169 274.669C157.444 268.532 156.93 261.688 157.216 261.975C157.264 262.022 157.924 265.475 158.683 269.647C160.676 280.611 162.212 288.709 163.174 293.341C163.637 295.571 164.062 297.628 164.118 297.914C164.174 298.2 164.269 298.597 164.329 298.795C164.389 298.995 164.483 299.415 164.538 299.731C164.594 300.046 164.738 300.678 164.86 301.136C164.981 301.593 165.122 302.201 165.172 302.486C165.222 302.772 165.362 303.38 165.483 303.837C165.604 304.293 165.737 304.855 165.779 305.084C166.014 306.381 170.346 322.681 171.164 325.349C171.452 326.288 172.317 329.467 172.733 331.117L172.956 332H194.376C206.156 332 215.795 331.956 215.795 331.902C215.795 331.848 215.565 331.285 215.285 330.651C215.004 330.016 214.757 329.429 214.736 329.346C214.716 329.262 214.606 328.96 214.493 328.675C214.09 327.658 213.962 327.315 213.715 326.596C213.577 326.196 213.385 325.682 213.288 325.453C213.032 324.852 211.535 320.267 211.117 318.802C210.921 318.116 210.687 317.368 210.596 317.139C210.434 316.729 209.594 313.901 209.455 313.294C209.416 313.123 209.244 312.562 209.074 312.047C208.681 310.858 207.822 308.06 207.766 307.786C207.743 307.672 207.579 307.158 207.402 306.643C207.225 306.129 206.99 305.334 206.88 304.877C206.77 304.419 206.492 303.344 206.261 302.486C206.03 301.629 205.513 299.706 205.112 298.214C203.633 292.708 200.888 280.195 199.986 274.844C199.746 273.415 199.507 271.999 199.456 271.699C199.277 270.643 197.901 261.428 197.784 260.502C197.332 256.936 195.308 247.838 193.529 241.381C193.166 240.066 192.656 238.196 192.393 237.224C190.243 229.26 189.058 225.536 186.7 219.334C184.213 212.794 183.264 210.598 181.921 208.282C181.673 207.854 181.283 207.176 181.054 206.775C180.825 206.375 180.45 205.721 180.222 205.321C179.993 204.92 179.616 204.258 179.384 203.849C178.772 202.77 176.528 199.447 175.675 198.358C174.475 196.824 171.739 194.204 169.3 192.252C168.041 191.244 166.871 190.366 166.699 190.3C166.528 190.234 166.313 190.055 166.221 189.904C166.129 189.752 165.919 189.628 165.753 189.628C165.587 189.628 165.451 189.532 165.451 189.414C165.451 189.296 165.288 189.137 165.087 189.061C164.887 188.985 164.63 188.844 164.515 188.748C163.827 188.172 161.682 186.719 161.519 186.719C161.413 186.719 161.294 186.648 161.256 186.563C161.17 186.37 159.298 185.056 159.109 185.056C159.034 185.056 158.842 184.939 158.682 184.796C157.994 184.179 157.759 184.017 157.555 184.017C157.436 184.017 157.338 183.944 157.338 183.856C157.338 183.768 157.015 183.522 156.619 183.309C156.224 183.096 155.733 182.77 155.527 182.585C155.322 182.399 154.89 182.078 154.568 181.871C154.246 181.664 153.824 181.366 153.632 181.207C153.439 181.049 152.439 180.252 151.409 179.436C150.106 178.404 149.073 177.343 148.011 175.945C146.202 173.564 145.853 172.829 145.039 169.679C144.7 168.367 144.286 167.02 144.119 166.686C143.952 166.352 143.816 166.046 143.816 166.006C143.816 165.967 145.945 165.934 148.549 165.933C157.369 165.931 167.06 164.872 174.501 163.098C184.043 160.823 189.477 158.706 195.648 154.858C198.536 153.057 200.047 151.89 202.464 149.594C206.967 145.317 209.288 140.941 209.692 135.969L209.822 134.374L211.092 133.267C216.194 128.821 219.033 125.122 220.552 120.937C221.054 119.552 221.846 115.658 221.965 113.986C222.489 106.61 217.142 98.5602 207.446 92.1292C206.344 91.398 205.15 90.6404 204.794 90.4459C204.035 90.0312 203.983 89.6369 204.578 88.8018C205.101 88.0681 207.632 82.7707 208.29 81.0313C208.55 80.3454 208.845 79.5972 208.947 79.3685C209.721 77.62 211.386 71.5824 212.042 68.1451C212.173 67.4592 212.373 66.4304 212.487 65.8588C212.601 65.2873 212.748 63.3232 212.815 61.4942C213.178 51.4926 210.651 45.6419 204.304 41.7945C202.667 40.8019 200.911 40.254 198.008 39.83C195.126 39.4089 192.456 39.6535 189.696 40.5913C188.277 41.0737 187.796 41.1627 187.668 40.9669C187.575 40.8256 187.023 39.7747 186.44 38.6316C184.234 34.3039 182.366 31.2648 180.57 29.0852C180.092 28.5057 179.569 27.7978 179.408 27.512C178.421 25.7683 172.884 19.9965 169.404 17.0848C163.65 12.2708 155.806 7.57963 149.329 5.07846C148.07 4.59232 146.853 4.11449 146.624 4.0166C145.785 3.65683 141.975 2.57605 139.343 1.95107C136.713 1.32651 136.108 1.2151 131.958 0.592199C129.465 0.217876 123.452 -0.08245 120.516 0.0204316ZM48.1627 24.6214C52.673 25.5498 56.9338 28.0593 61.3166 32.3689C63.9093 34.9183 64.7899 36.1996 66.5413 39.9717C68.4656 44.1165 68.6127 44.7675 68.6092 49.1276C68.6077 51.1281 68.5222 53.2324 68.4194 53.804L68.2324 54.8432L68.0481 53.804C67.7648 52.2057 66.4685 47.9772 65.6593 46.01C64.7231 43.7347 63.0701 40.9394 61.4187 38.8394C57.6762 34.0803 54.1582 31.6826 48.9185 30.3206C46.8691 29.7879 46.4799 29.7515 43.8217 29.8453C41.5782 29.9243 40.6991 30.0419 39.8341 30.3786C34.988 32.266 30.7884 37.0555 28.2943 43.5395C27.0817 46.6921 26.1553 50.1685 25.765 53.0317C24.8337 59.8639 26.0719 72.1793 28.4445 79.6803C28.8602 80.9949 29.5169 83.0608 29.9039 84.2715C30.789 87.0414 33.3387 92.7126 34.8598 95.2948C35.4976 96.3779 36.7814 98.2879 37.7122 99.5398C39.2791 101.647 39.3943 101.869 39.2645 102.543C39.1875 102.943 39.1012 103.858 39.0729 104.577C39.0446 105.296 38.9739 105.931 38.9158 105.989C38.6485 106.256 35.7891 102.723 33.6212 99.4464C30.955 95.417 29.461 92.7824 27.9022 89.362C24.9308 82.8416 22.3417 74.0781 21.8174 68.7686C21.761 68.197 21.6046 66.8028 21.47 65.6705C21.1646 63.1037 21.3585 55.6195 21.7989 52.9726C21.9699 51.9438 22.206 50.4474 22.3234 49.6472C22.9776 45.1873 26.017 37.4373 28.7349 33.2992C29.3097 32.424 30.6536 30.8211 31.7212 29.737C33.4581 27.9737 33.8927 27.655 35.8469 26.7121C38.0951 25.6276 40.2645 24.9381 42.4176 24.6245C44.2153 24.3624 46.898 24.361 48.1627 24.6214ZM112.559 27.194C117.547 28.3025 122.649 30.9647 126.461 34.4479C129.502 37.227 133.049 41.9421 135.07 45.8913C136.606 48.8927 138.321 53.7385 138.937 56.8177C139.363 58.9489 139.222 58.7814 140.68 58.8978C141.428 58.9575 142.115 58.9124 142.262 58.7939C142.405 58.6787 142.774 57.462 143.082 56.0903C143.74 53.1597 144.642 50.3738 145.463 48.7383C145.786 48.095 146.121 47.3349 146.208 47.0492C146.548 45.9316 149.051 41.1429 150.093 39.6176C151.668 37.313 155.19 33.8417 157.399 32.4181C160.953 30.1273 165.022 29.2951 168.702 30.1061C169.603 30.3046 170.434 30.531 170.548 30.6089C170.662 30.687 171.131 30.8758 171.588 31.0283C172.046 31.1809 173.636 32.0187 175.122 32.8902C179.542 35.4828 182.773 39.0331 185.282 44.0544C186.923 47.3397 188.303 51.8204 188.956 55.9863C189.09 56.8437 189.234 57.7601 189.276 58.0226C189.954 62.3128 189.91 73.7086 189.194 78.745C188.967 80.3454 188.587 82.5389 188.35 83.6195C188.113 84.7001 187.919 85.6946 187.919 85.8293C187.919 85.964 189.032 86.4553 190.391 86.9213C199.233 89.9502 206.902 94.2564 211.901 98.9994C214.672 101.628 216.245 103.658 217.468 106.18C218.871 109.074 219.155 110.25 219.25 113.558C219.321 116.048 219.271 116.587 218.808 118.339C218.136 120.88 216.617 124.002 214.966 126.237C213.383 128.379 210.31 131.449 208.614 132.58C207.532 133.303 207.362 133.506 207.312 134.137C207.005 137.984 205.577 142.189 203.703 144.764C201.507 147.783 197.301 151.375 192.74 154.128C187.677 157.184 178.459 160.252 169.508 161.859C162.557 163.108 157.298 163.456 145.168 163.473C136.457 163.485 130.213 163.157 124.469 162.386C122.81 162.163 121.031 161.927 120.516 161.86C117.819 161.513 107.699 159.622 105.195 158.997C100.472 157.82 95.1805 156.386 93.064 155.711C89.6635 154.627 80.8011 151.004 78.0776 149.585C65.5588 143.062 60.4212 139.567 54.1463 133.307C49.968 129.138 47.1602 125.444 44.8237 121.041C43.628 118.787 42.9565 117.015 42.2165 114.16C41.5427 111.56 41.3823 110.21 41.416 107.427C41.4659 103.328 42.1903 100.534 44.38 95.9959C47.2423 90.0637 51.3268 85.8704 56.9077 83.1348C59.0636 82.0779 62.3137 80.8964 63.8273 80.6191C68.8962 79.6909 69.4488 79.6285 73.3968 79.54C76.3041 79.4749 78.2155 79.5356 79.7418 79.7414C80.9432 79.9033 81.9405 80.0261 81.958 80.0141C81.9755 80.0018 81.86 79.2438 81.7015 78.3293C81.1893 75.3757 81.0191 72.2048 81.0878 66.898C81.1862 59.3189 81.8284 55.1529 83.8278 49.1276C86.0579 42.4062 89.0802 37.2677 93.2477 33.1123C95.6719 30.6949 98.0529 28.8959 99.8733 28.1059C100.414 27.871 101.7 27.4528 102.729 27.1766C104.429 26.7208 104.9 26.683 107.826 26.7667C109.676 26.8197 111.694 27.002 112.559 27.194ZM46.7262 33.41C51.3408 34.2461 56.1746 37.5888 59.5104 42.2507C61.0567 44.4117 63.1173 49.6495 64.3828 54.6354C65.0216 57.1532 65.0676 57.5641 65.056 60.6628C65.0416 64.4738 64.6682 66.9313 63.705 69.5541C62.1606 73.7597 59.6837 76.3929 56.3381 77.3861C55.8805 77.5221 54.8039 77.7112 53.9458 77.8064C52.6327 77.9519 52.1906 77.9145 51.1546 77.5688C50.4777 77.3431 49.5116 76.8751 49.0077 76.5288C47.6752 75.6128 45.7333 73.6017 45.194 72.5794C45.0532 72.3125 44.8749 72.0473 44.7977 71.9902C44.3488 71.658 42.4247 67.1834 41.8483 65.1314C40.3583 59.8279 40.2589 54.6412 41.6024 52.2932C42.2394 51.1802 43.9226 49.8338 45.0653 49.5237C47.191 48.947 49.6149 49.5198 51.2934 50.9959C53.2395 52.7074 54.7675 56.847 54.6945 60.2112C54.6292 63.2211 53.8692 64.5322 52.7889 63.4984C51.8671 62.6163 50.2012 60.3483 50.2012 59.9753C50.2012 59.6065 49.5983 59.2771 49.171 59.4126C48.6611 59.5743 48.6445 59.9466 49.0593 61.9038C49.4529 63.7594 50.6 66.1741 51.4479 66.9313C53.0352 68.3492 55.2114 68.2565 56.4994 66.7162C57.5978 65.4026 58.2633 62.2018 58.0386 59.3118C57.8156 56.4448 56.2926 52.218 54.8262 50.396C52.0934 47.0014 48.4941 45.4644 45.2319 46.2995C41.4407 47.2697 39.4809 49.2221 38.4288 53.0766C37.8846 55.0704 37.9339 59.762 38.5281 62.5334C39.5054 67.0926 41.4855 72.0795 43.4869 75.0234C45.302 77.6929 49.6287 80.9789 52.0416 81.5205C52.5347 81.6313 52.9716 81.7554 53.0127 81.7963C53.0537 81.8375 52.3676 82.3556 51.4883 82.9482C48.7283 84.8073 45.4366 88.26 43.462 91.3666C42.4917 92.893 41.3606 95.1433 40.5233 97.213L39.8628 98.8458L38.4835 96.7626C35.4119 92.1233 34.0083 89.0939 31.9663 82.694C30.8579 79.2206 28.6399 70.4833 28.4576 68.8725C28.3865 68.2438 28.2901 67.4488 28.2435 67.1059C28.1972 66.7629 28.0985 64.9391 28.0249 63.053C27.8029 57.3847 28.4672 50.8761 29.6299 47.3241C31.6871 41.0394 36.4305 35.1868 40.5277 33.8782C42.4719 33.2572 44.8791 33.0753 46.7262 33.41ZM108.138 35.3749C106.339 35.8386 105.625 36.2 103.757 37.5919C100.355 40.1266 97.5937 44.2574 95.0574 50.6066C94.3488 52.3805 93.9442 53.8414 93.5321 56.1144C93.0072 59.0084 92.9714 59.5899 92.9758 65.1314C92.9808 71.5323 93.2906 75.2537 94.1874 79.6897C94.7901 82.6701 95.8604 85.3799 96.3572 85.1833C98.5105 84.331 107.54 82.471 114.946 81.3547C120.127 80.5734 129.532 79.6855 132.665 79.6817L133.892 79.6803L133.751 76.7186C133.248 66.1862 130.737 55.1261 127.163 47.7018C125.581 44.4158 124.473 42.7718 122.468 40.7381C119.916 38.1506 117.828 36.6999 115.081 35.6064C113.492 34.9738 110.13 34.8617 108.138 35.3749ZM115.129 37.2555C116.5 37.923 116.872 38.1988 117.88 39.2952L118.468 39.935L117.568 39.751C117.073 39.65 116.345 39.4943 115.952 39.4052C115.558 39.316 114.555 39.3079 113.724 39.3873C110.45 39.6997 107.61 42.0001 105.291 46.2178C103.749 49.0228 102.278 54.531 101.793 59.3118C101.554 61.6683 101.521 65.4024 101.741 65.2692C101.827 65.217 102.412 65.2563 103.04 65.3563C103.669 65.4562 105.026 65.5965 106.057 65.6682C107.087 65.7399 107.98 65.8283 108.041 65.8649C108.102 65.9014 109.06 65.9931 110.17 66.0687C111.28 66.1444 112.327 66.2267 112.497 66.2516C113.011 66.3271 113.112 66.5676 112.693 66.7185C112.476 66.7966 110.754 67.5999 108.866 68.5036C106.978 69.4075 104.711 70.4914 103.828 70.9127C102.944 71.3338 102.184 71.7719 102.139 71.8862C101.985 72.2701 102.984 76.6483 103.655 78.5372C104.021 79.566 104.367 80.5572 104.425 80.7399C104.51 81.009 104.201 81.1381 102.797 81.4208C101.845 81.6128 100.195 81.9867 99.1311 82.2519C97.3884 82.6861 97.1806 82.7011 97.0322 82.4022C96.3896 81.1065 95.6403 77.0758 95.0582 71.7823C94.3472 65.3151 94.4281 62.2523 95.4579 56.6818C97.1835 47.3476 101.401 40.4342 107.152 37.5123C109.608 36.2647 112.88 36.1593 115.129 37.2555ZM163.475 38.2545C156.129 39.92 150.209 49.5911 147.785 63.8843C147.172 67.4995 146.869 71.3311 146.981 74.0505L147.082 76.4941L144.337 76.7477C140.867 77.0683 139.156 77.4263 137.711 78.1333C135.322 79.3016 134.148 80.8565 133.906 83.1716C133.771 84.4598 134.107 85.4236 135.199 86.8793C135.954 87.8863 138.272 89.4304 140.22 90.2235C142.053 90.9705 146 92.007 147.977 92.2605C148.606 92.3412 149.308 92.4476 149.537 92.4971C149.766 92.5465 151.771 92.7381 153.994 92.9231C157.44 93.2097 158.359 93.2199 160.235 92.9923C164.067 92.5272 165.949 91.7442 167.705 89.8845C169.016 88.4961 169.404 87.6261 169.402 86.0797C169.4 85.0121 169.287 84.575 168.781 83.6943C168.441 83.1014 167.831 82.3635 167.425 82.0545C167.02 81.7456 166.73 81.4515 166.78 81.4008C166.966 81.2156 178.085 83.234 178.587 83.5441C178.717 83.6237 179.431 80.7633 180.098 77.4979C180.688 74.6089 180.904 71.7937 180.924 66.6902C180.947 61.0248 180.665 58.1691 179.687 54.1831C177.97 47.1857 176.098 43.7478 172.42 40.8384C170.715 39.4895 169.455 38.7978 168.027 38.426C166.901 38.133 164.423 38.0396 163.475 38.2545ZM169.196 40.8093C170.737 41.5917 171.811 42.3596 171.98 42.8005C172.072 43.0386 171.933 43.0208 171.322 42.7161C170.481 42.2964 168.543 41.8984 167.22 41.8735C164.625 41.8251 161.657 43.6881 159.635 46.6335C158.818 47.8246 157.6 50.162 157.145 51.4138C156.999 51.8139 156.805 52.3283 156.714 52.557C155.983 54.3878 155.436 56.703 154.969 59.9353C154.449 63.5453 154.43 64.0679 154.816 64.1712C155.768 64.4258 156.511 64.523 159.847 64.8304C161.843 65.0142 163.756 65.1958 164.099 65.2338C164.442 65.2719 164.98 65.3114 165.295 65.3211C165.854 65.3388 166.123 65.6687 165.607 65.7027C165.325 65.7217 164.597 65.9654 158.794 67.9873C156.677 68.7247 154.826 69.4418 154.68 69.5806C154.471 69.7802 154.461 70.2682 154.633 71.8989C154.753 73.0352 154.938 74.3855 155.045 74.8999C155.151 75.4143 155.294 76.2131 155.363 76.6749L155.488 77.5146L153.968 77.3182C153.133 77.2101 151.653 76.9725 150.681 76.7902L148.913 76.4587L148.846 74.5882C148.765 72.3208 149.123 66.8671 149.549 63.8843C149.96 60.9993 151.163 56.1566 152.078 53.7001C152.978 51.2841 154.406 48.4047 155.531 46.7374C157.411 43.9488 160.768 41.2874 163.573 40.3602C165.364 39.7685 167.478 39.9374 169.196 40.8093ZM198.529 42.4727C203.19 43.1467 207.233 45.9071 209.035 49.6472C210.378 52.4335 210.652 53.7949 210.708 57.9608C210.799 64.7718 209.619 71.0071 206.73 78.9824C205.91 81.2453 203.422 86.2653 202.485 87.5475C201.927 88.3099 201.737 88.4358 201.268 88.3492C200.963 88.2924 198.887 87.4369 196.656 86.448C194.425 85.4589 192.342 84.5376 192.027 84.4006C191.317 84.0913 191.314 83.9681 191.869 78.7126C192.658 71.2423 192.509 60.2436 191.543 54.5568C191.214 52.6162 189.768 46.5711 189.325 45.2825C188.854 43.911 188.943 43.6792 190.103 43.2438C192.47 42.3559 195.686 42.0616 198.529 42.4727ZM150.465 78.7843C153 79.0805 154.695 79.4756 158.898 80.7505C163.173 82.047 166.074 83.559 166.907 84.9246C167.869 86.5008 166.995 88.2494 164.484 89.7718C163.015 90.6622 158.659 91.1654 154.738 90.8975C152.313 90.732 148.083 90.1987 146.52 89.8616C141.174 88.7079 139.038 87.9391 137.617 86.6559C135.595 84.8314 135.655 82.769 137.785 80.8467C140.07 78.7841 144.414 78.0774 150.465 78.7843ZM69.0535 92.9745C67.8557 94.6403 64.3705 97.182 59.6065 99.864C57.7099 100.932 57.2697 101.267 57.3182 101.605C57.3554 101.864 57.511 102.001 57.7268 101.966C57.9184 101.934 58.1345 102.004 58.2071 102.122C58.3661 102.379 59.7915 102.393 60.8479 102.148L61.613 101.97L62.7029 104.179C63.6599 106.118 65.5887 109.537 66.0601 110.129C66.2727 110.396 68.278 113.402 68.8139 114.256C69.0392 114.615 69.3901 115.091 69.594 115.312C69.7976 115.534 69.9643 115.782 69.9643 115.862C69.9643 115.943 70.4557 116.651 71.0565 117.436C71.6573 118.22 72.4162 119.255 72.7432 119.735C73.0702 120.215 74.1936 121.666 75.2396 122.958C76.2856 124.25 77.3286 125.54 77.5575 125.824C77.7863 126.108 78.9097 127.285 80.0539 128.439C88.1097 136.566 96.3299 142.704 105.205 147.221C111.005 150.173 115.447 151.929 122.34 153.993C131.519 156.744 136.723 157.604 145.193 157.772C152.785 157.923 155.785 157.636 164.307 155.942C171.352 154.541 174.46 153.563 178.557 151.457C180.659 150.377 183.126 148.956 183.342 148.7C183.399 148.633 183.821 148.301 184.278 147.962C186.577 146.263 191.336 139.823 193.499 135.486C195.063 132.349 197.072 126.911 197.072 125.816C197.072 125.3 197.55 125.069 201.337 123.746C204.835 122.524 206.273 121.859 206.682 121.276C207.055 120.745 206.916 118.975 206.49 118.811C206.075 118.652 203.689 119.215 200.089 120.32C191.837 122.852 184.271 124.046 172.212 124.716C167.889 124.957 155.852 124.891 152.449 124.609C140.89 123.649 128.684 121.703 119.58 119.371C105.832 115.848 98.3905 112.555 74.8531 99.5792C72.5647 98.3176 70.4798 97.1554 70.2198 96.9966L69.7471 96.7077L70.2961 95.9884C70.8661 95.2418 71.3956 93.9829 71.4114 93.3365C71.4222 92.8926 70.5266 91.9429 70.0972 91.9429C69.9312 91.9429 69.4615 92.4073 69.0535 92.9745ZM100.233 132.687C106.525 133.277 113.157 135.996 117.122 139.611C117.73 140.166 118.228 140.74 118.228 140.888C118.228 141.036 118.358 141.207 118.517 141.268C118.676 141.329 119.297 142.088 119.896 142.955C120.496 143.822 121.364 144.808 121.824 145.146C122.615 145.727 122.689 145.743 123.2 145.441C123.819 145.076 123.944 144.385 123.593 143.28C123.466 142.88 123.385 142.516 123.413 142.472C123.441 142.427 123.376 142.334 123.267 142.264C123.159 142.194 122.906 141.809 122.705 141.409C122.503 141.009 122.193 140.516 122.015 140.313C121.484 139.709 121.934 139.534 123.43 139.762C124.173 139.875 125.109 140.014 125.509 140.069C127.03 140.28 129.808 141.066 131.383 141.729C133.169 142.482 135.078 143.623 135.078 143.937C135.078 144.046 135.156 144.088 135.252 144.029C135.347 143.97 135.882 144.386 136.44 144.952C136.998 145.518 137.398 145.982 137.328 145.982C137.257 145.982 137.471 146.272 137.803 146.626C138.134 146.981 138.354 147.355 138.29 147.458C138.226 147.561 138.279 147.645 138.407 147.645C138.535 147.645 138.582 147.738 138.511 147.852C138.44 147.967 138.478 148.06 138.595 148.06C138.795 148.06 139.189 149.199 139.385 150.346C139.433 150.632 139.499 151.006 139.529 151.178C139.56 151.349 139.658 151.895 139.746 152.39C139.834 152.885 139.843 153.705 139.767 154.212L139.628 155.136L138.654 155.04C138.118 154.987 136.836 154.749 135.807 154.51C133.311 153.93 133.575 153.988 129.638 153.171C127.733 152.775 125.767 152.342 125.269 152.208C124.772 152.075 124.343 151.971 124.316 151.979C124.289 151.987 123.867 151.849 123.38 151.674C122.892 151.498 122.337 151.321 122.146 151.281C121.208 151.084 112.48 147.615 111.155 146.913C110.534 146.584 108.929 145.881 108.346 145.682C108.117 145.605 106.774 144.915 105.362 144.15C103.949 143.386 102.545 142.632 102.241 142.474C101.179 141.924 97.2166 139.251 97.2166 139.084C97.2166 138.991 97.1125 138.915 96.9854 138.915C96.5172 138.915 92.2806 135.202 91.8535 134.418C91.6082 133.967 91.6409 133.896 92.2695 133.513C92.6448 133.284 93.1391 133.082 93.368 133.065C93.9259 133.021 94.1425 132.975 94.5121 132.822C94.7984 132.704 95.7146 132.602 97.3206 132.509C97.6638 132.489 98.9744 132.569 100.233 132.687Z" fill="#2C3034"/>
<path fill-rule="evenodd" clip-rule="evenodd" d="M112.559 27.194C117.547 28.3025 122.649 30.9647 126.461 34.4479C129.502 37.227 133.049 41.9421 135.07 45.8913C136.606 48.8927 138.321 53.7385 138.937 56.8177C139.363 58.9489 139.222 58.7814 140.68 58.8978C141.428 58.9575 142.115 58.9124 142.262 58.7939C142.405 58.6787 142.774 57.462 143.082 56.0903C143.74 53.1597 144.642 50.3738 145.463 48.7383C145.786 48.095 146.121 47.3349 146.208 47.0492C146.548 45.9316 149.051 41.1429 150.093 39.6176C151.668 37.313 155.19 33.8417 157.399 32.4181C160.953 30.1273 165.022 29.2951 168.702 30.1061C169.603 30.3046 170.434 30.531 170.548 30.6089C170.662 30.687 171.131 30.8758 171.588 31.0283C172.046 31.1809 173.636 32.0187 175.122 32.8902C179.542 35.4828 182.773 39.0331 185.282 44.0544C186.923 47.3397 188.303 51.8204 188.956 55.9863C189.09 56.8437 189.234 57.7601 189.276 58.0226C189.954 62.3128 189.91 73.7086 189.194 78.745C188.967 80.3454 188.587 82.5389 188.35 83.6195C188.113 84.7001 187.919 85.6946 187.919 85.8293C187.919 85.964 189.032 86.4553 190.391 86.9213C199.233 89.9502 206.902 94.2564 211.901 98.9994C214.672 101.628 216.245 103.658 217.468 106.18C218.871 109.074 219.155 110.25 219.25 113.558C219.321 116.048 219.271 116.587 218.808 118.339C218.136 120.88 216.617 124.002 214.966 126.237C213.383 128.379 210.31 131.449 208.614 132.58C207.532 133.303 207.362 133.506 207.312 134.137C207.005 137.984 205.577 142.189 203.703 144.764C201.507 147.783 197.301 151.375 192.74 154.128C187.677 157.184 178.459 160.252 169.508 161.859C162.557 163.108 157.298 163.456 145.168 163.473C136.457 163.485 130.213 163.157 124.469 162.386C122.81 162.163 121.031 161.927 120.516 161.86C117.819 161.513 107.699 159.622 105.195 158.997C100.472 157.82 95.1805 156.386 93.064 155.711C89.6635 154.627 80.8011 151.004 78.0776 149.585C65.5588 143.062 60.4212 139.567 54.1463 133.307C49.968 129.138 47.1602 125.444 44.8237 121.041C43.628 118.787 42.9565 117.015 42.2165 114.16C41.5427 111.56 41.3823 110.21 41.416 107.427C41.4659 103.328 42.1903 100.534 44.38 95.9959C47.2423 90.0637 51.3268 85.8704 56.9077 83.1348C59.0636 82.0779 62.3137 80.8964 63.8273 80.6191C68.8962 79.6909 69.4488 79.6285 73.3968 79.54C76.3041 79.4749 78.2155 79.5356 79.7418 79.7414C80.9432 79.9033 81.9405 80.0261 81.958 80.0141C81.9755 80.0018 81.86 79.2438 81.7015 78.3293C81.1893 75.3757 81.0191 72.2048 81.0878 66.898C81.1862 59.3189 81.8284 55.1529 83.8278 49.1276C86.0579 42.4062 89.0802 37.2677 93.2477 33.1123C95.6719 30.6949 98.0529 28.8959 99.8733 28.1059C100.414 27.871 101.7 27.4528 102.729 27.1766C104.429 26.7208 104.9 26.683 107.826 26.7667C109.676 26.8197 111.694 27.002 112.559 27.194ZM103.757 37.5919C105.625 36.2 106.339 35.8386 108.138 35.3749C110.13 34.8617 113.492 34.9738 115.081 35.6064C117.828 36.6999 119.916 38.1506 122.468 40.7381C124.473 42.7718 125.581 44.4158 127.163 47.7018C130.737 55.1261 133.248 66.1862 133.751 76.7186L133.892 79.6803L132.665 79.6817C129.532 79.6855 120.127 80.5734 114.946 81.3547C107.54 82.471 98.5105 84.331 96.3572 85.1833C95.8604 85.3799 94.7901 82.6701 94.1874 79.6897C93.2906 75.2537 92.9808 71.5323 92.9758 65.1314C92.9714 59.5899 93.0072 59.0084 93.5321 56.1144C93.9442 53.8414 94.3488 52.3805 95.0574 50.6066C97.5937 44.2574 100.355 40.1266 103.757 37.5919ZM147.785 63.8843C150.209 49.5911 156.129 39.92 163.475 38.2545C164.423 38.0396 166.901 38.133 168.027 38.426C169.455 38.7978 170.715 39.4895 172.42 40.8384C176.098 43.7478 177.97 47.1857 179.687 54.1831C180.665 58.1691 180.947 61.0248 180.924 66.6902C180.904 71.7937 180.688 74.6089 180.098 77.4979C179.431 80.7633 178.717 83.6237 178.587 83.5441C178.085 83.234 166.966 81.2156 166.78 81.4008C166.73 81.4515 167.02 81.7456 167.425 82.0545C167.831 82.3635 168.441 83.1014 168.781 83.6943C169.287 84.575 169.4 85.0121 169.402 86.0797C169.404 87.6261 169.016 88.4961 167.705 89.8845C165.949 91.7442 164.067 92.5272 160.235 92.9923C158.359 93.2199 157.44 93.2097 153.994 92.9231C151.771 92.7381 149.766 92.5465 149.537 92.4971C149.308 92.4476 148.606 92.3412 147.977 92.2605C146 92.007 142.053 90.9705 140.22 90.2235C138.272 89.4304 135.954 87.8863 135.199 86.8793C134.107 85.4236 133.771 84.4598 133.906 83.1716C134.148 80.8565 135.322 79.3016 137.711 78.1333C139.156 77.4263 140.867 77.0683 144.337 76.7477L147.082 76.4941L146.981 74.0505C146.869 71.3311 147.172 67.4995 147.785 63.8843ZM59.6065 99.864C64.3705 97.182 67.8557 94.6403 69.0535 92.9745C69.4615 92.4073 69.9312 91.9429 70.0972 91.9429C70.5266 91.9429 71.4222 92.8926 71.4114 93.3365C71.3956 93.9829 70.8661 95.2418 70.2961 95.9884L69.7471 96.7077L70.2198 96.9966C70.4798 97.1554 72.5647 98.3176 74.8531 99.5792C98.3905 112.555 105.832 115.848 119.58 119.371C128.684 121.703 140.89 123.649 152.449 124.609C155.852 124.891 167.889 124.957 172.212 124.716C184.271 124.046 191.837 122.852 200.089 120.32C203.689 119.215 206.075 118.652 206.49 118.811C206.916 118.975 207.055 120.745 206.682 121.276C206.273 121.859 204.835 122.524 201.337 123.746C197.55 125.069 197.072 125.3 197.072 125.816C197.072 126.911 195.063 132.349 193.499 135.486C191.336 139.823 186.577 146.263 184.278 147.962C183.821 148.301 183.399 148.633 183.342 148.7C183.126 148.956 180.659 150.377 178.557 151.457C174.46 153.563 171.352 154.541 164.307 155.942C155.785 157.636 152.785 157.923 145.193 157.772C136.723 157.604 131.519 156.744 122.34 153.993C115.447 151.929 111.005 150.173 105.205 147.221C96.3299 142.704 88.1097 136.566 80.0539 128.439C78.9097 127.285 77.7863 126.108 77.5575 125.824C77.3286 125.54 76.2856 124.25 75.2396 122.958C74.1936 121.666 73.0702 120.215 72.7432 119.735C72.4162 119.255 71.6573 118.22 71.0565 117.436C70.4557 116.651 69.9643 115.943 69.9643 115.862C69.9643 115.782 69.7976 115.534 69.594 115.312C69.3901 115.091 69.0392 114.615 68.8139 114.256C68.278 113.402 66.2727 110.396 66.0601 110.129C65.5887 109.537 63.6599 106.118 62.7029 104.179L61.613 101.97L60.8479 102.148C59.7915 102.393 58.3661 102.379 58.2071 102.122C58.1345 102.004 57.9184 101.934 57.7268 101.966C57.511 102.001 57.3554 101.864 57.3182 101.605C57.2697 101.267 57.7099 100.932 59.6065 99.864Z" fill="#2C3034"/>
<path d="M150.465 78.7843C153 79.0805 154.695 79.4756 158.898 80.7505C163.173 82.047 166.074 83.559 166.907 84.9246C167.869 86.5008 166.995 88.2494 164.484 89.7718C163.015 90.6622 158.659 91.1654 154.738 90.8975C152.313 90.732 148.083 90.1987 146.52 89.8616C141.174 88.7079 139.038 87.9391 137.617 86.6559C135.595 84.8314 135.655 82.769 137.785 80.8467C140.07 78.7841 144.414 78.0774 150.465 78.7843Z" fill="#2C3034"/>
<path d="M169.196 40.8093C170.737 41.5917 171.811 42.3596 171.98 42.8005C172.072 43.0386 171.933 43.0208 171.322 42.7161C170.481 42.2964 168.543 41.8984 167.22 41.8735C164.625 41.8251 161.657 43.6881 159.635 46.6335C158.818 47.8246 157.6 50.162 157.145 51.4138C156.999 51.8139 156.805 52.3283 156.714 52.557C155.983 54.3878 155.436 56.703 154.969 59.9353C154.449 63.5453 154.43 64.0679 154.816 64.1712C155.768 64.4258 156.511 64.523 159.847 64.8304C161.843 65.0142 163.756 65.1958 164.099 65.2338C164.442 65.2719 164.98 65.3114 165.295 65.3211C165.854 65.3388 166.123 65.6687 165.607 65.7027C165.325 65.7217 164.597 65.9654 158.794 67.9873C156.677 68.7247 154.826 69.4418 154.68 69.5806C154.471 69.7802 154.461 70.2682 154.633 71.8989C154.753 73.0352 154.938 74.3855 155.045 74.8999C155.151 75.4143 155.294 76.2131 155.363 76.6749L155.488 77.5146L153.968 77.3182C153.133 77.2101 151.653 76.9725 150.681 76.7902L148.913 76.4587L148.846 74.5882C148.765 72.3208 149.123 66.8671 149.549 63.8843C149.96 60.9993 151.163 56.1566 152.078 53.7001C152.978 51.2841 154.406 48.4047 155.531 46.7374C157.411 43.9488 160.768 41.2874 163.573 40.3602C165.364 39.7685 167.478 39.9374 169.196 40.8093Z" fill="#2C3034"/>
<path d="M115.129 37.2555C116.5 37.923 116.872 38.1988 117.88 39.2952L118.468 39.935L117.568 39.751C117.073 39.65 116.345 39.4943 115.952 39.4052C115.558 39.316 114.555 39.3079 113.724 39.3873C110.45 39.6997 107.61 42.0001 105.291 46.2178C103.749 49.0228 102.278 54.531 101.793 59.3118C101.554 61.6683 101.521 65.4024 101.741 65.2692C101.827 65.217 102.412 65.2563 103.04 65.3563C103.669 65.4562 105.026 65.5965 106.057 65.6682C107.087 65.7399 107.98 65.8283 108.041 65.8649C108.102 65.9014 109.06 65.9931 110.17 66.0687C111.28 66.1444 112.327 66.2267 112.497 66.2516C113.011 66.3271 113.112 66.5676 112.693 66.7185C112.476 66.7966 110.754 67.5999 108.866 68.5036C106.978 69.4075 104.711 70.4914 103.828 70.9127C102.944 71.3338 102.184 71.7719 102.139 71.8862C101.985 72.2701 102.984 76.6483 103.655 78.5372C104.021 79.566 104.367 80.5572 104.425 80.7399C104.51 81.009 104.201 81.1381 102.797 81.4208C101.845 81.6128 100.195 81.9867 99.1311 82.2519C97.3884 82.6861 97.1806 82.7011 97.0322 82.4022C96.3896 81.1065 95.6403 77.0758 95.0582 71.7823C94.3472 65.3151 94.4281 62.2523 95.4579 56.6818C97.1835 47.3476 101.401 40.4342 107.152 37.5123C109.608 36.2647 112.88 36.1593 115.129 37.2555Z" fill="#2C3034"/>
<path d="M46.7262 33.41C51.3408 34.2461 56.1746 37.5888 59.5104 42.2507C61.0567 44.4117 63.1173 49.6495 64.3828 54.6354C65.0216 57.1532 65.0676 57.5641 65.056 60.6628C65.0416 64.4738 64.6682 66.9313 63.705 69.5541C62.1606 73.7597 59.6837 76.3929 56.3381 77.3861C55.8805 77.5221 54.8039 77.7112 53.9458 77.8064C52.6327 77.9519 52.1906 77.9145 51.1546 77.5688C50.4777 77.3431 49.5116 76.8751 49.0077 76.5288C47.6752 75.6128 45.7333 73.6017 45.194 72.5794C45.0532 72.3125 44.8749 72.0473 44.7977 71.9902C44.3488 71.658 42.4247 67.1834 41.8483 65.1314C40.3583 59.8279 40.2589 54.6412 41.6024 52.2932C42.2394 51.1802 43.9226 49.8338 45.0653 49.5237C47.191 48.947 49.6149 49.5198 51.2934 50.9959C53.2395 52.7074 54.7675 56.847 54.6945 60.2112C54.6292 63.2211 53.8692 64.5322 52.7889 63.4984C51.8671 62.6163 50.2012 60.3483 50.2012 59.9753C50.2012 59.6065 49.5983 59.2771 49.171 59.4126C48.6611 59.5743 48.6445 59.9466 49.0593 61.9038C49.4529 63.7594 50.6 66.1741 51.4479 66.9313C53.0352 68.3492 55.2114 68.2565 56.4994 66.7162C57.5978 65.4026 58.2633 62.2018 58.0386 59.3118C57.8156 56.4448 56.2926 52.218 54.8262 50.396C52.0934 47.0014 48.4941 45.4644 45.2319 46.2995C41.4407 47.2697 39.4809 49.2221 38.4288 53.0766C37.8846 55.0704 37.9339 59.762 38.5281 62.5334C39.5054 67.0926 41.4855 72.0795 43.4869 75.0234C45.302 77.6929 49.6287 80.9789 52.0416 81.5205C52.5347 81.6313 52.9716 81.7554 53.0127 81.7963C53.0537 81.8375 52.3676 82.3556 51.4883 82.9482C48.7283 84.8073 45.4366 88.26 43.462 91.3666C42.4917 92.893 41.3606 95.1433 40.5233 97.213L39.8628 98.8458L38.4835 96.7626C35.4119 92.1233 34.0083 89.0939 31.9663 82.694C30.8579 79.2206 28.6399 70.4833 28.4576 68.8725C28.3865 68.2438 28.2901 67.4488 28.2435 67.1059C28.1972 66.7629 28.0985 64.9391 28.0249 63.053C27.8029 57.3847 28.4672 50.8761 29.6299 47.3241C31.6871 41.0394 36.4305 35.1868 40.5277 33.8782C42.4719 33.2572 44.8791 33.0753 46.7262 33.41Z" fill="#2C3034"/>
<path d="M48.1627 24.6214C52.673 25.5498 56.9338 28.0593 61.3166 32.3689C63.9093 34.9183 64.7899 36.1996 66.5413 39.9717C68.4656 44.1165 68.6127 44.7675 68.6092 49.1276C68.6077 51.1281 68.5222 53.2324 68.4194 53.804L68.2324 54.8432L68.0481 53.804C67.7648 52.2057 66.4685 47.9772 65.6593 46.01C64.7231 43.7347 63.0701 40.9394 61.4187 38.8394C57.6762 34.0803 54.1582 31.6826 48.9185 30.3206C46.8691 29.7879 46.4799 29.7515 43.8217 29.8453C41.5782 29.9243 40.6991 30.0419 39.8341 30.3786C34.988 32.266 30.7884 37.0555 28.2943 43.5395C27.0817 46.6921 26.1553 50.1685 25.765 53.0317C24.8337 59.8639 26.0719 72.1793 28.4445 79.6803C28.8602 80.9949 29.5169 83.0608 29.9039 84.2715C30.789 87.0414 33.3387 92.7126 34.8598 95.2948C35.4976 96.3779 36.7814 98.2879 37.7122 99.5398C39.2791 101.647 39.3943 101.869 39.2645 102.543C39.1875 102.943 39.1012 103.858 39.0729 104.577C39.0446 105.296 38.9739 105.931 38.9158 105.989C38.6485 106.256 35.7891 102.723 33.6212 99.4464C30.955 95.417 29.461 92.7824 27.9022 89.362C24.9308 82.8416 22.3417 74.0781 21.8174 68.7686C21.761 68.197 21.6046 66.8028 21.47 65.6705C21.1646 63.1037 21.3585 55.6195 21.7989 52.9726C21.9699 51.9438 22.206 50.4474 22.3234 49.6472C22.9776 45.1873 26.017 37.4373 28.7349 33.2992C29.3097 32.424 30.6536 30.8211 31.7212 29.737C33.4581 27.9737 33.8927 27.655 35.8469 26.7121C38.0951 25.6276 40.2645 24.9381 42.4176 24.6245C44.2153 24.3624 46.898 24.361 48.1627 24.6214Z" fill="#2C3034"/>
<path d="M198.529 42.4727C203.19 43.1467 207.233 45.9071 209.035 49.6472C210.378 52.4335 210.652 53.7949 210.708 57.9608C210.799 64.7718 209.619 71.0071 206.73 78.9824C205.91 81.2453 203.422 86.2653 202.485 87.5475C201.927 88.3099 201.737 88.4358 201.268 88.3492C200.963 88.2924 198.887 87.4369 196.656 86.448C194.425 85.4589 192.342 84.5376 192.027 84.4006C191.317 84.0913 191.314 83.9681 191.869 78.7126C192.658 71.2423 192.509 60.2436 191.543 54.5568C191.214 52.6162 189.768 46.5711 189.325 45.2825C188.854 43.911 188.943 43.6792 190.103 43.2438C192.47 42.3559 195.686 42.0616 198.529 42.4727Z" fill="#2C3034"/>
<path d="M100.233 132.687C106.525 133.277 113.157 135.996 117.122 139.611C117.73 140.166 118.228 140.74 118.228 140.888C118.228 141.036 118.358 141.207 118.517 141.268C118.676 141.329 119.297 142.088 119.896 142.955C120.496 143.822 121.364 144.808 121.824 145.146C122.615 145.727 122.689 145.743 123.2 145.441C123.819 145.076 123.944 144.385 123.593 143.28C123.466 142.88 123.385 142.516 123.413 142.472C123.441 142.427 123.376 142.334 123.267 142.264C123.159 142.194 122.906 141.809 122.705 141.409C122.503 141.009 122.193 140.516 122.015 140.313C121.484 139.709 121.934 139.534 123.43 139.762C124.173 139.875 125.109 140.014 125.509 140.069C127.03 140.28 129.808 141.066 131.383 141.729C133.169 142.482 135.078 143.623 135.078 143.937C135.078 144.046 135.156 144.088 135.252 144.029C135.347 143.97 135.882 144.386 136.44 144.952C136.998 145.518 137.398 145.982 137.328 145.982C137.257 145.982 137.471 146.272 137.803 146.626C138.134 146.981 138.354 147.355 138.29 147.458C138.226 147.561 138.279 147.645 138.407 147.645C138.535 147.645 138.582 147.738 138.511 147.852C138.44 147.967 138.478 148.06 138.595 148.06C138.795 148.06 139.189 149.199 139.385 150.346C139.433 150.632 139.499 151.006 139.529 151.178C139.56 151.349 139.658 151.895 139.746 152.39C139.834 152.885 139.843 153.705 139.767 154.212L139.628 155.136L138.654 155.04C138.118 154.987 136.836 154.749 135.807 154.51C133.311 153.93 133.575 153.988 129.638 153.171C127.733 152.775 125.767 152.342 125.269 152.208C124.772 152.075 124.343 151.971 124.316 151.979C124.289 151.987 123.867 151.849 123.38 151.674C122.892 151.498 122.337 151.321 122.146 151.281C121.208 151.084 112.48 147.615 111.155 146.913C110.534 146.584 108.929 145.881 108.346 145.682C108.117 145.605 106.774 144.915 105.362 144.15C103.949 143.386 102.545 142.632 102.241 142.474C101.179 141.924 97.2166 139.251 97.2166 139.084C97.2166 138.991 97.1125 138.915 96.9854 138.915C96.5172 138.915 92.2806 135.202 91.8535 134.418C91.6082 133.967 91.6409 133.896 92.2695 133.513C92.6448 133.284 93.1391 133.082 93.368 133.065C93.9259 133.021 94.1425 132.975 94.5121 132.822C94.7984 132.704 95.7146 132.602 97.3206 132.509C97.6638 132.489 98.9744 132.569 100.233 132.687Z" fill="#2C3034"/>
</g>
<path d="M142.738 210.448V207.322C142.738 166.673 212 157.683 212 100.618C212 59.5782 181.698 33 120.306 33C66.7852 33 15.2319 63.0959 5 107.263L56.5532 151.82C65.9981 115.471 94.7262 99.4454 115.977 99.4454C129.357 99.4454 136.048 104.527 136.048 113.516C136.048 135.795 77.0171 156.119 77.0171 205.367V210.448H142.738ZM144.705 298V231.164H73.8688V298H144.705Z" fill="#2C3034"/>
</svg>
